<?xml version="1.0" encoding="utf-8"?>
<!-- Generator: Adobe Illustrator 16.0.3, SVG Export Plug-In . SVG Version: 6.00 Build 0)  -->
<!DOCTYPE svg PUBLIC "-//W3C//DTD SVG 1.1//EN" "http://www.w3.org/Graphics/SVG/1.1/DTD/svg11.dtd">
<svg version="1.1" id="Capa_1" xmlns="http://www.w3.org/2000/svg" xmlns:xlink="http://www.w3.org/1999/xlink" x="0px" y="0px"
	 width="1000px" height="400px" viewBox="0 0 1000 400" enable-background="new 0 0 1000 400" xml:space="preserve">
<polygon fill="#262626" points="586.334,0 1000,236.117 1000,0 "/>
<path fill="#5A6AC1" d="M797.827,120.719C843,343,1000,400,1000,400V236.117C1000,236.117,803.195,123.783,797.827,120.719z"/>
<path fill="#262626" d="M1000,400c0,0-61.5-23.75-117.27-91.656C862.807,317.678,690,400,690,400H1000z"/>
<polygon fill="#262626" points="0,246.333 236.117,0 0,0 "/>
<rect x="464" y="214.539" fill="none" width="299" height="83.795"/>
<text transform="matrix(1 0 0 1 464 240.2988)"><tspan x="0" y="0" fill="#262626" font-family="'Signika-Bold'" font-size="35">DISEÑADOR</tspan><tspan x="188.91" y="0" fill="#262626" font-family="'Signika-Bold'" font-size="35" letter-spacing="1"> </tspan><tspan x="197.869" y="0" fill="#262626" font-family="'Signika-Bold'" font-size="35">WEB</tspan><tspan x="271.054" y="0" fill="#262626" font-family="'Signika-Bold'" font-size="35" letter-spacing="1"> </tspan><tspan x="280.014" y="0" fill="#262626" font-family="'Signika-Bold'" font-size="35">Y </tspan><tspan x="20.264" y="42" fill="#262626" font-family="'Signika-Bold'" font-size="35">DESARROLLADOR</tspan></text>
<rect x="464" y="141.701" fill="none" width="281" height="57.598"/>
<text transform="matrix(0.6667 0 0 1 464 185.8604)" fill="#E31B6D" font-family="'Signika-Bold'" font-size="60">CRISTIAN CALA</text>
<path fill="#5A6AC1" d="M418.333,0c0,0-276.083,126.917-287.083,144.25S88.333,400,88.333,400H0V246.333L236.117,0L418.333,0z"/>
<rect x="335.167" y="339.403" fill="none" width="269.333" height="35"/>
<text transform="matrix(0.6667 0 0 1 335.167 368.8428)" fill="#262626" font-family="'Signika-Bold'" font-size="40">¡Keep moving forward!</text>
<ellipse opacity="0.9" fill="#E31B6D" cx="172.847" cy="296.747" rx="40.847" ry="40.313"/>
<polygon opacity="0.9" fill="#E31B6D" points="309,109.804 309.51,79.51 335.49,95.099 "/>
<g>
	<g>
		
			<image overflow="visible" opacity="0.75" width="257" height="186" xlink:href="C7F8CADA.png"  transform="matrix(1 0 0 1 153 128)">
		</image>
		<g>
			<path fill="#FFFFFF" d="M395,286.334c0,6.627-5.373,12-12,12H180c-6.627,0-12-5.373-12-12V155c0-6.627,5.373-12,12-12h203
				c6.627,0,12,5.373,12,12V286.334z"/>
		</g>
	</g>
	<rect x="194" y="190" fill="none" width="171.5" height="79"/>
	<text transform="matrix(1 0 0 1 226.9712 219.4395)"><tspan x="0" y="0" fill="#E31B6D" font-family="'Signika-Bold'" font-size="40">¡Hello </tspan><tspan x="-3.91" y="48" fill="#E31B6D" font-family="'Signika-Bold'" font-size="40">world!</tspan></text>
	<path fill="#5A6AC1" d="M309,298.334c0,0,65.221,0.08,75.735-0.127C394.875,297.25,395,286.334,395,286.334v-70.001
		c0,0-33.333,12.002-43,41.001S309,298.334,309,298.334z"/>
	<path fill="#5A6AC1" d="M254,162.213c0,0-65.221-0.08-75.735,0.127C168.125,163.297,168,174.213,168,174.213v70.001
		c0,0,33.333-12.002,43-41.002C220.667,174.213,254,162.213,254,162.213z"/>
	<path fill="#262626" d="M395,158.5c0,6.627,0,12,0,12H168c0,0,0-5.373,0-12V155c0-6.627,5.373-12,12-12h203c6.627,0,12,5.373,12,12
		V158.5z"/>
	<ellipse fill="#E31B6D" cx="380" cy="157.36" rx="7.667" ry="7.64"/>
	<ellipse fill="#5A6AC1" cx="361.833" cy="157.36" rx="7.667" ry="7.64"/>
	<ellipse fill="#E5E5E5" cx="342.833" cy="157.36" rx="7.667" ry="7.64"/>
</g>
<polygon opacity="0.9" fill="none" stroke="#E31B6D" stroke-width="7.3067" stroke-miterlimit="10" points="711.936,349.13 
	658.994,349.835 684.854,303.636 "/>
<g>
	<ellipse fill="#FFFFFF" cx="673.083" cy="28.958" rx="6.412" ry="5.303"/>
	<ellipse fill="#FFFFFF" cx="701.446" cy="28.958" rx="6.411" ry="5.303"/>
	<ellipse fill="#FFFFFF" cx="729.801" cy="28.958" rx="6.412" ry="5.303"/>
	<ellipse fill="#FFFFFF" cx="761.737" cy="28.958" rx="6.411" ry="5.303"/>
	<ellipse fill="#FFFFFF" cx="673.084" cy="51.349" rx="6.412" ry="5.303"/>
	<ellipse fill="#FFFFFF" cx="701.448" cy="51.349" rx="6.412" ry="5.303"/>
	<ellipse fill="#FFFFFF" cx="729.803" cy="51.349" rx="6.412" ry="5.303"/>
	<ellipse fill="#FFFFFF" cx="761.74" cy="51.349" rx="6.412" ry="5.303"/>
	<ellipse fill="#FFFFFF" cx="673.083" cy="75.506" rx="6.412" ry="5.303"/>
	<ellipse fill="#FFFFFF" cx="701.446" cy="75.506" rx="6.411" ry="5.303"/>
	<ellipse fill="#FFFFFF" cx="729.801" cy="75.506" rx="6.412" ry="5.303"/>
	<ellipse fill="#FFFFFF" cx="761.737" cy="75.506" rx="6.411" ry="5.303"/>
	<ellipse fill="#FFFFFF" cx="673.083" cy="99.959" rx="6.412" ry="5.304"/>
	<ellipse fill="#FFFFFF" cx="701.446" cy="99.959" rx="6.411" ry="5.304"/>
	<ellipse fill="#FFFFFF" cx="729.801" cy="99.959" rx="6.412" ry="5.304"/>
	<ellipse fill="#FFFFFF" cx="761.737" cy="99.959" rx="6.411" ry="5.304"/>
</g>
<polygon opacity="0.9" fill="#E31B6D" stroke="#E31B6D" stroke-miterlimit="10" points="609.463,66.479 582.504,52.652 
	607.958,36.218 "/>
<ellipse fill="#5A6AC1" cx="418.334" cy="56.651" rx="13.771" ry="13.32"/>
<ellipse fill="#5A6AC1" cx="541.37" cy="91.943" rx="13.771" ry="13.32"/>
<ellipse fill="none" stroke="#5A6AC1" stroke-miterlimit="10" cx="424.834" cy="60.401" rx="13.771" ry="13.32"/>
<polygon opacity="0.9" fill="none" stroke="#E31B6D" stroke-width="2" stroke-miterlimit="10" points="613.293,73.592 
	586.334,59.766 611.788,43.332 "/>
</svg>
