<?xml version="1.0" encoding="utf-8"?>
<!-- Generator: Adobe Illustrator 16.0.3, SVG Export Plug-In . SVG Version: 6.00 Build 0)  -->
<!DOCTYPE svg PUBLIC "-//W3C//DTD SVG 1.1//EN" "http://www.w3.org/Graphics/SVG/1.1/DTD/svg11.dtd">
<svg version="1.1" id="Capa_1" xmlns="http://www.w3.org/2000/svg" xmlns:xlink="http://www.w3.org/1999/xlink" x="0px" y="0px"
	 width="1000px" height="400px" viewBox="0 0 1000 400" enable-background="new 0 0 1000 400" xml:space="preserve">
<rect fill="#FFFFFF" width="1000" height="400"/>
<polygon fill="#262626" points="586.334,0 1000,236.117 1000,0 "/>
<path fill="#5A6AC1" d="M797.827,120.719C843,343,1000,400,1000,400V236.117C1000,236.117,803.195,123.783,797.827,120.719z"/>
<path fill="#262626" d="M1000,400c0,0-61.5-23.75-117.27-91.656C862.807,317.678,690,400,690,400H1000z"/>
<polygon fill="#262626" points="0,246.333 236.117,0 0,0 "/>
<rect x="464" y="214.539" fill="none" width="299" height="83.795"/>
<g enable-background="new    ">
	<path fill="#262626" d="M486.067,228.329c0,1.364-0.096,2.681-0.289,3.946s-0.569,2.447-1.129,3.543
		c-0.56,1.098-1.4,2.077-2.52,2.94c-0.537,0.42-1.181,0.759-1.934,1.015c-0.752,0.257-1.525,0.444-2.319,0.561
		s-1.517,0.175-2.17,0.175c-1.003,0-1.986-0.009-2.949-0.026s-1.925-0.035-2.888-0.053c-0.962-0.018-1.951-0.038-2.966-0.061
		l-0.245-0.245v-23.556l0.245-0.244c1.003-0.035,1.986-0.062,2.949-0.079c0.963-0.018,1.928-0.032,2.896-0.044
		c0.968-0.012,1.954-0.018,2.958-0.018c0.653,0,1.376,0.062,2.17,0.184c0.793,0.123,1.569,0.313,2.328,0.569
		c0.758,0.257,1.4,0.595,1.925,1.015c1.108,0.863,1.942,1.841,2.502,2.932s0.939,2.266,1.138,3.526
		C485.968,225.669,486.067,226.976,486.067,228.329z M480.31,228.329c0-0.887-0.056-1.788-0.167-2.704s-0.321-1.756-0.63-2.52
		c-0.309-0.765-0.77-1.383-1.382-1.855c-0.613-0.473-1.42-0.709-2.424-0.709c-0.595,0-1.167,0-1.715,0
		c-0.549,0-1.132-0.011-1.75-0.035v15.663c0.618-0.012,1.201-0.018,1.75-0.018c0.548,0,1.12,0,1.715,0
		c1.003,0,1.811-0.236,2.424-0.709c0.612-0.473,1.073-1.097,1.382-1.872c0.309-0.776,0.519-1.622,0.63-2.538
		C480.254,230.117,480.31,229.216,480.31,228.329z"/>
	<path fill="#262626" d="M490.092,216.394c0.455-0.081,0.951-0.137,1.487-0.166s0.98-0.044,1.33-0.044
		c0.374,0,0.816,0.015,1.33,0.044c0.513,0.029,1.003,0.085,1.47,0.166v23.905c-0.467,0.081-0.957,0.137-1.47,0.166
		c-0.514,0.029-0.957,0.044-1.33,0.044c-0.35,0-0.793-0.015-1.33-0.044s-1.032-0.085-1.487-0.166V216.394z"/>
	<path fill="#262626" d="M498.982,238.217c0.07-0.782,0.312-1.558,0.727-2.328c0.414-0.77,0.895-1.388,1.444-1.854
		c0.979,0.595,2.094,1.126,3.342,1.592c1.248,0.467,2.497,0.7,3.746,0.7c1.014,0,1.743-0.245,2.188-0.734
		c0.442-0.49,0.664-1.016,0.664-1.575c0-0.386-0.122-0.816-0.367-1.295s-0.857-0.922-1.838-1.33l-4.217-1.75
		c-1.447-0.606-2.643-1.418-3.588-2.433c-0.945-1.016-1.417-2.356-1.417-4.025c0-1.458,0.379-2.735,1.138-3.832
		c0.758-1.097,1.781-1.951,3.07-2.564c1.289-0.612,2.727-0.918,4.314-0.918c1.645,0,3.195,0.219,4.654,0.656s2.643,0.89,3.553,1.355
		c-0.047,0.806-0.236,1.578-0.568,2.319c-0.333,0.741-0.773,1.362-1.322,1.863c-0.887-0.42-1.924-0.808-3.114-1.163
		c-1.19-0.356-2.258-0.534-3.202-0.534c-1.004,0-1.719,0.228-2.145,0.683s-0.639,0.916-0.639,1.383c0,0.443,0.148,0.84,0.446,1.189
		c0.298,0.351,0.831,0.688,1.602,1.016l4.305,1.768c1.132,0.466,2.089,1.047,2.87,1.741c0.781,0.693,1.379,1.479,1.794,2.354
		c0.414,0.875,0.621,1.814,0.621,2.817c0,1.412-0.341,2.684-1.024,3.814c-0.682,1.132-1.705,2.03-3.07,2.695
		s-3.068,0.998-5.11,0.998c-1.411,0-2.917-0.226-4.515-0.674C501.724,239.701,500.277,239.057,498.982,238.217z"/>
	<path fill="#262626" d="M520.576,216.639l0.246-0.245h5.268v4.603c0,0.49,0.005,0.928,0.017,1.313s0.018,0.817,0.018,1.295v9.625
		c0,0.455-0.006,0.873-0.018,1.252s-0.017,0.802-0.017,1.269v4.655h-2.293c-1.004,0-1.791-0.292-2.363-0.875
		c-0.571-0.584-0.857-1.383-0.857-2.398V216.639z M535.906,216.394c0.082,0.42,0.135,0.814,0.158,1.182s0.035,0.709,0.035,1.023
		c0,0.315-0.039,0.703-0.114,1.164c-0.076,0.461-0.19,0.901-0.341,1.321h-7.158c-0.291,0-0.705-0.006-1.242-0.018
		s-1.088-0.021-1.654-0.026c-0.565-0.006-1.035-0.015-1.408-0.026v-4.62H535.906z M533.824,226.001
		c0.116,0.339,0.201,0.729,0.254,1.173s0.078,0.816,0.078,1.12c0,0.314-0.025,0.683-0.078,1.103s-0.138,0.811-0.254,1.172h-5.338
		c-0.291,0-0.705-0.005-1.242-0.017s-1.088-0.021-1.654-0.026c-0.565-0.006-1.035-0.015-1.408-0.026v-4.428
		c0.373-0.012,0.843-0.021,1.408-0.026c0.566-0.006,1.117-0.015,1.654-0.026c0.537-0.011,0.951-0.018,1.242-0.018H533.824z
		 M536.781,235.714c0,1.54-0.242,2.707-0.727,3.5c-0.483,0.794-1.467,1.19-2.948,1.19h-8.925v-4.516
		c0.758-0.035,1.481-0.072,2.17-0.113s1.464-0.062,2.328-0.062H536.781z"/>
	<path fill="#262626" d="M540.666,216.499c0.432-0.105,1.004-0.184,1.715-0.236c0.712-0.053,1.243-0.079,1.593-0.079
		c0.362,0,0.841,0.015,1.435,0.044c0.596,0.029,1.202,0.085,1.82,0.166l-1.417,6.37l-0.368,0.123
		c0.094,0.991,0.172,2.114,0.236,3.368c0.064,1.255,0.114,2.506,0.148,3.754c0.035,1.249,0.053,2.356,0.053,3.325v6.965
		c-0.455,0.081-0.904,0.137-1.348,0.166s-0.84,0.044-1.189,0.044c-0.338,0-0.762-0.015-1.269-0.044
		c-0.508-0.029-0.978-0.085-1.409-0.166V216.499z M547.544,227.769c-0.386-0.898-0.75-1.778-1.094-2.643
		c-0.345-0.863-0.634-1.633-0.866-2.31l-2.59-2.992l4.234-3.431l5.391,12.495c0.443,1.027,0.857,2.01,1.242,2.949
		c0.385,0.938,0.7,1.729,0.945,2.371l2.834,3.063l-4.566,3.027L547.544,227.769z M548.699,212.964
		c-0.164-0.081-0.339-0.154-0.525-0.219s-0.373-0.097-0.561-0.097c-0.197,0-0.408,0.062-0.629,0.185
		c-0.223,0.122-0.438,0.341-0.648,0.656l-0.297,0.42c-0.514,0-1.047-0.151-1.602-0.455s-0.93-0.694-1.129-1.173l0.298-0.665
		c0.42-0.898,0.997-1.636,1.732-2.214c0.735-0.577,1.604-0.866,2.607-0.866c0.42,0,0.831,0.062,1.233,0.184
		c0.402,0.123,0.773,0.266,1.111,0.429l1.61,0.788c0.163,0.082,0.341,0.154,0.534,0.219c0.191,0.064,0.381,0.096,0.568,0.096
		c0.198,0,0.408-0.061,0.63-0.184c0.222-0.122,0.438-0.341,0.647-0.656l0.297-0.438c0.525,0.012,1.063,0.17,1.611,0.473
		c0.548,0.304,0.921,0.694,1.119,1.173l-0.297,0.647c-0.42,0.91-1.001,1.653-1.742,2.231c-0.74,0.577-1.607,0.866-2.598,0.866
		c-0.42,0-0.838-0.064-1.252-0.193c-0.414-0.128-0.779-0.268-1.094-0.42L548.699,212.964z M559.689,216.394v23.8
		c-0.444,0.105-1.024,0.185-1.742,0.236c-0.717,0.053-1.263,0.079-1.636,0.079c-0.362,0-0.841-0.015-1.435-0.044
		c-0.596-0.029-1.197-0.085-1.803-0.166l1.47-6.037l0.402-0.123c-0.093-1.085-0.173-2.274-0.236-3.57
		c-0.063-1.295-0.114-2.543-0.148-3.744c-0.035-1.202-0.053-2.205-0.053-3.011v-4.27c0-1.248,0.254-2.123,0.761-2.625
		c0.508-0.502,1.299-0.753,2.371-0.753h1.82L559.689,216.394z"/>
	<path fill="#262626" d="M570.399,216.394c0.442-0.069,0.977-0.122,1.601-0.157c0.625-0.035,1.17-0.053,1.637-0.053
		c0.443,0,0.98,0.021,1.609,0.062c0.631,0.041,1.174,0.103,1.628,0.184l7.525,23.503c-0.386,0.222-0.884,0.391-1.497,0.507
		c-0.611,0.117-1.181,0.176-1.705,0.176c-0.887,0-1.582-0.208-2.083-0.622c-0.502-0.414-0.922-1.222-1.261-2.424l-2.502-8.872
		c-0.269-0.979-0.584-2.135-0.945-3.465s-0.688-2.572-0.979-3.728h-0.21c-0.117,0.653-0.274,1.377-0.473,2.17
		c-0.198,0.794-0.405,1.584-0.621,2.371c-0.217,0.788-0.418,1.496-0.604,2.126l-3.57,12.163c-0.35,0.081-0.727,0.137-1.129,0.166
		s-0.82,0.044-1.251,0.044c-0.42,0-0.896-0.035-1.427-0.105c-0.531-0.069-0.953-0.163-1.269-0.279l-0.21-0.298L570.399,216.394z
		 M570.819,235.294c-0.163,0-0.353-0.003-0.569-0.009c-0.215-0.006-0.432-0.012-0.646-0.018c-0.217-0.006-0.406-0.009-0.569-0.009
		h-2.94l1.697-4.357h2.591c0.163,0,0.351-0.003,0.56-0.009c0.211-0.006,0.42-0.012,0.631-0.018c0.209-0.006,0.396-0.009,0.56-0.009
		h2.555c0.163,0,0.351,0.003,0.56,0.009c0.211,0.006,0.424,0.012,0.639,0.018c0.217,0.006,0.406,0.009,0.569,0.009h2.678
		l1.417,4.357h-2.957c-0.164,0-0.354,0.003-0.568,0.009c-0.217,0.006-0.432,0.012-0.648,0.018c-0.215,0.006-0.405,0.009-0.568,0.009
		H570.819z"/>
	<path fill="#262626" d="M606.764,228.329c0,1.364-0.097,2.681-0.289,3.946s-0.568,2.447-1.129,3.543
		c-0.561,1.098-1.4,2.077-2.52,2.94c-0.537,0.42-1.182,0.759-1.934,1.015c-0.753,0.257-1.525,0.444-2.319,0.561
		s-1.517,0.175-2.17,0.175c-1.003,0-1.986-0.009-2.948-0.026c-0.963-0.018-1.926-0.035-2.889-0.053
		c-0.962-0.018-1.951-0.038-2.966-0.061l-0.245-0.245v-23.556l0.245-0.244c1.003-0.035,1.986-0.062,2.948-0.079
		c0.963-0.018,1.928-0.032,2.896-0.044s1.955-0.018,2.958-0.018c0.653,0,1.376,0.062,2.17,0.184
		c0.794,0.123,1.569,0.313,2.327,0.569c0.759,0.257,1.4,0.595,1.926,1.015c1.107,0.863,1.941,1.841,2.502,2.932
		s0.939,2.266,1.138,3.526C606.664,225.669,606.764,226.976,606.764,228.329z M601.006,228.329c0-0.887-0.056-1.788-0.166-2.704
		c-0.111-0.916-0.321-1.756-0.631-2.52c-0.309-0.765-0.77-1.383-1.382-1.855s-1.421-0.709-2.424-0.709c-0.595,0-1.167,0-1.715,0
		c-0.549,0-1.132-0.011-1.75-0.035v15.663c0.618-0.012,1.201-0.018,1.75-0.018c0.548,0,1.12,0,1.715,0
		c1.003,0,1.812-0.236,2.424-0.709s1.073-1.097,1.382-1.872c0.31-0.776,0.52-1.622,0.631-2.538
		C600.95,230.117,601.006,229.216,601.006,228.329z"/>
	<path fill="#262626" d="M609.318,228.329c0-2.497,0.376-4.679,1.129-6.545c0.752-1.867,1.898-3.319,3.438-4.357
		c1.54-1.039,3.488-1.558,5.845-1.558c1.773,0,3.313,0.3,4.62,0.901c1.307,0.601,2.389,1.449,3.246,2.546
		c0.858,1.097,1.497,2.409,1.917,3.938s0.629,3.22,0.629,5.075c0,2.508-0.379,4.698-1.137,6.571
		c-0.759,1.872-1.904,3.328-3.439,4.366c-1.533,1.038-3.479,1.558-5.836,1.558c-1.785,0-3.331-0.301-4.637-0.901
		c-1.308-0.601-2.387-1.453-3.238-2.556s-1.487-2.417-1.907-3.946C609.528,231.894,609.318,230.195,609.318,228.329z
		 M615.163,228.329c0,0.922,0.05,1.86,0.149,2.817c0.098,0.957,0.303,1.844,0.611,2.66c0.31,0.816,0.768,1.473,1.375,1.969
		c0.605,0.496,1.417,0.743,2.432,0.743c1.004,0,1.809-0.247,2.415-0.743s1.064-1.152,1.374-1.969
		c0.309-0.816,0.514-1.703,0.612-2.66s0.149-1.896,0.149-2.817s-0.051-1.861-0.149-2.817c-0.099-0.957-0.304-1.838-0.612-2.643
		c-0.31-0.806-0.768-1.455-1.374-1.951s-1.411-0.744-2.415-0.744c-1.015,0-1.826,0.248-2.432,0.744
		c-0.607,0.496-1.065,1.146-1.375,1.951c-0.309,0.805-0.514,1.686-0.611,2.643C615.213,226.468,615.163,227.407,615.163,228.329z"/>
	<path fill="#262626" d="M651.195,223.796c0,1.12-0.217,2.115-0.647,2.984c-0.432,0.869-0.974,1.593-1.628,2.17
		c-0.653,0.577-1.313,0.995-1.977,1.251c0.652,0.233,1.198,0.636,1.636,1.208c0.438,0.571,0.79,1.242,1.059,2.012l1.05,2.958
		c0.187,0.549,0.426,1.044,0.718,1.487s0.63,0.812,1.015,1.103c-0.361,0.467-0.887,0.857-1.574,1.173
		c-0.689,0.314-1.406,0.473-2.152,0.473c-1.004,0-1.732-0.271-2.188-0.814c-0.455-0.542-0.869-1.35-1.243-2.424l-1.26-3.657
		c-0.198-0.606-0.508-1.123-0.928-1.549s-1.097-0.639-2.03-0.639h-3.727v-4.183c0.455-0.023,1.018-0.049,1.688-0.078
		c0.672-0.029,1.307-0.053,1.908-0.07c0.601-0.018,1.029-0.026,1.286-0.026c0.887,0,1.566-0.16,2.038-0.481
		c0.473-0.32,0.8-0.737,0.98-1.251c0.182-0.514,0.271-1.062,0.271-1.646c0-0.606-0.09-1.166-0.271-1.68
		c-0.181-0.513-0.508-0.925-0.98-1.233c-0.472-0.31-1.151-0.464-2.038-0.464c-0.245,0-0.505,0-0.778,0
		c-0.274,0-0.563-0.003-0.867-0.009c-0.303-0.006-0.623-0.015-0.962-0.026v19.915c-0.467,0.081-0.951,0.137-1.452,0.166
		c-0.502,0.029-0.945,0.044-1.33,0.044c-0.339,0-0.771-0.015-1.295-0.044c-0.525-0.029-1.016-0.085-1.471-0.166v-23.73l0.245-0.244
		c1.493-0.035,2.932-0.067,4.313-0.097c1.383-0.029,2.739-0.044,4.069-0.044c1.622,0,3.077,0.269,4.366,0.806
		c1.289,0.536,2.304,1.364,3.045,2.484C650.824,220.594,651.195,222.035,651.195,223.796z"/>
</g>
<g enable-background="new    ">
	<path fill="#262626" d="M662.395,216.727c0.408-0.175,0.877-0.327,1.408-0.455s1.047-0.192,1.549-0.192
		c0.98,0,1.694,0.213,2.145,0.639c0.448,0.426,0.766,1.239,0.953,2.441l1.47,9.047c0.128,0.759,0.257,1.566,0.386,2.424
		c0.128,0.857,0.244,1.687,0.35,2.485s0.181,1.479,0.228,2.039c0.022,0.222,0.058,0.355,0.104,0.402s0.129,0.069,0.245,0.069
		l2.888-18.777c0.561-0.093,1.16-0.16,1.803-0.201c0.641-0.041,1.236-0.062,1.785-0.062c0.56,0,1.164,0.021,1.811,0.062
		c0.648,0.041,1.234,0.108,1.76,0.201l2.677,18.306c0.035,0.233,0.081,0.37,0.14,0.411s0.141,0.061,0.246,0.061
		c0.058-0.642,0.143-1.394,0.253-2.257s0.233-1.753,0.368-2.669c0.133-0.916,0.271-1.771,0.41-2.563l1.996-11.743
		c0.42-0.081,0.846-0.137,1.277-0.166s0.84-0.044,1.225-0.044c0.432,0,0.89,0.032,1.373,0.097c0.484,0.064,0.908,0.154,1.27,0.271
		l0.279,0.35l-4.637,23.362c-0.643,0.07-1.415,0.128-2.318,0.175c-0.904,0.047-1.725,0.07-2.459,0.07
		c-0.828,0-1.561-0.14-2.197-0.42c-0.635-0.28-1.041-0.985-1.215-2.117l-1.191-7.561c-0.209-1.376-0.404-2.8-0.586-4.27
		c-0.181-1.471-0.317-2.754-0.41-3.851h-0.281c-0.116,1.097-0.277,2.378-0.48,3.842c-0.205,1.464-0.424,2.891-0.656,4.278
		l-1.593,9.853c-0.665,0.07-1.421,0.128-2.267,0.175s-1.647,0.07-2.406,0.07c-0.91,0-1.677-0.14-2.301-0.42
		c-0.625-0.28-1.047-0.985-1.27-2.117L662.395,216.727z"/>
	<path fill="#262626" d="M696.116,216.639l0.245-0.245h5.268v4.603c0,0.49,0.006,0.928,0.018,1.313s0.018,0.817,0.018,1.295v9.625
		c0,0.455-0.006,0.873-0.018,1.252s-0.018,0.802-0.018,1.269v4.655h-2.293c-1.004,0-1.791-0.292-2.362-0.875
		c-0.571-0.584-0.857-1.383-0.857-2.398V216.639z M711.446,216.394c0.081,0.42,0.134,0.814,0.157,1.182s0.035,0.709,0.035,1.023
		c0,0.315-0.038,0.703-0.113,1.164c-0.076,0.461-0.19,0.901-0.342,1.321h-7.157c-0.292,0-0.706-0.006-1.243-0.018
		c-0.536-0.012-1.088-0.021-1.653-0.026s-1.036-0.015-1.409-0.026v-4.62H711.446z M709.363,226.001
		c0.117,0.339,0.201,0.729,0.254,1.173s0.079,0.816,0.079,1.12c0,0.314-0.026,0.683-0.079,1.103s-0.137,0.811-0.254,1.172h-5.337
		c-0.292,0-0.706-0.005-1.243-0.017c-0.536-0.012-1.088-0.021-1.653-0.026s-1.036-0.015-1.409-0.026v-4.428
		c0.373-0.012,0.844-0.021,1.409-0.026s1.117-0.015,1.653-0.026c0.537-0.011,0.951-0.018,1.243-0.018H709.363z M712.321,235.714
		c0,1.54-0.242,2.707-0.727,3.5c-0.483,0.794-1.467,1.19-2.948,1.19h-8.926v-4.516c0.759-0.035,1.482-0.072,2.17-0.113
		c0.689-0.041,1.465-0.062,2.328-0.062H712.321z"/>
	<path fill="#262626" d="M716.451,216.324c1.4-0.035,2.785-0.067,4.156-0.097s2.675-0.044,3.912-0.044
		c1.633,0,3.063,0.225,4.287,0.674s2.182,1.144,2.869,2.083c0.689,0.938,1.033,2.144,1.033,3.613c0,0.863-0.195,1.666-0.586,2.406
		c-0.392,0.741-0.91,1.356-1.559,1.847c-0.646,0.489-1.355,0.781-2.125,0.875v-0.561c0.944,0.059,1.828,0.385,2.65,0.98
		c0.822,0.595,1.484,1.359,1.986,2.292c0.502,0.934,0.753,1.942,0.753,3.027c0,1.634-0.358,2.973-1.077,4.017
		c-0.717,1.044-1.729,1.817-3.035,2.318c-1.307,0.502-2.854,0.753-4.638,0.753c-1.365,0-2.771-0.015-4.218-0.044
		s-2.916-0.061-4.41-0.096l-0.244-0.245v-23.556L716.451,216.324z M721.719,236.589c0.572-0.012,1.114-0.021,1.627-0.026
		c0.514-0.006,0.957-0.009,1.33-0.009c0.712,0,1.299-0.102,1.76-0.306s0.818-0.476,1.076-0.814c0.256-0.338,0.438-0.705,0.542-1.103
		c0.104-0.396,0.157-0.775,0.157-1.138c0-0.513-0.102-1.035-0.306-1.565c-0.204-0.531-0.565-0.978-1.085-1.339
		s-1.246-0.543-2.179-0.543h-5.022v-3.973h4.619c0.782,0,1.393-0.14,1.83-0.42c0.438-0.279,0.743-0.639,0.918-1.076
		c0.176-0.438,0.263-0.884,0.263-1.339s-0.087-0.895-0.263-1.321c-0.175-0.426-0.48-0.775-0.918-1.05
		c-0.438-0.273-1.048-0.411-1.83-0.411c-0.303,0-0.688,0-1.154,0s-0.922-0.012-1.365-0.035V236.589z"/>
</g>
<g enable-background="new    ">
	<path fill="#262626" d="M757.84,216.394c0.385-0.081,0.77-0.137,1.154-0.166s0.758-0.044,1.12-0.044
		c0.466,0,0.948,0.035,1.444,0.105c0.495,0.069,0.93,0.169,1.303,0.297l0.229,0.315l-7.053,16.713h-4.988l-7.122-16.556
		c0.478-0.268,1.018-0.492,1.618-0.674c0.602-0.181,1.199-0.271,1.795-0.271c0.793,0,1.402,0.175,1.828,0.524
		c0.426,0.351,0.802,0.916,1.129,1.697l1.662,4.183c0.291,0.735,0.568,1.521,0.832,2.354c0.262,0.834,0.516,1.724,0.761,2.668h0.21
		c0.141-0.595,0.303-1.189,0.49-1.785c0.186-0.595,0.385-1.181,0.595-1.758c0.21-0.578,0.42-1.135,0.63-1.672L757.84,216.394z
		 M750.699,229.589h5.617v10.71c-0.467,0.081-0.953,0.137-1.461,0.166s-0.948,0.044-1.321,0.044c-0.339,0-0.782-0.015-1.33-0.044
		s-1.05-0.085-1.505-0.166V229.589z"/>
</g>
<g enable-background="new    ">
	<path fill="#262626" d="M506.332,270.329c0,1.364-0.097,2.681-0.289,3.946s-0.568,2.447-1.129,3.543
		c-0.561,1.098-1.4,2.077-2.52,2.94c-0.537,0.42-1.182,0.759-1.934,1.015c-0.752,0.257-1.525,0.444-2.319,0.561
		s-1.517,0.175-2.17,0.175c-1.003,0-1.986-0.009-2.949-0.026s-1.925-0.035-2.888-0.053c-0.962-0.018-1.951-0.038-2.966-0.061
		l-0.245-0.245v-23.556l0.245-0.244c1.003-0.035,1.986-0.062,2.949-0.079c0.963-0.018,1.928-0.032,2.896-0.044
		c0.968-0.012,1.954-0.018,2.958-0.018c0.653,0,1.376,0.062,2.17,0.184c0.793,0.123,1.569,0.313,2.328,0.569
		c0.758,0.257,1.4,0.595,1.925,1.015c1.107,0.863,1.941,1.841,2.502,2.932s0.939,2.266,1.138,3.526
		C506.232,267.669,506.332,268.976,506.332,270.329z M500.574,270.329c0-0.887-0.056-1.788-0.167-2.704s-0.321-1.756-0.63-2.52
		c-0.309-0.765-0.77-1.383-1.382-1.855c-0.613-0.473-1.42-0.709-2.424-0.709c-0.595,0-1.167,0-1.715,0
		c-0.549,0-1.132-0.011-1.75-0.035v15.663c0.618-0.012,1.201-0.018,1.75-0.018c0.548,0,1.12,0,1.715,0
		c1.003,0,1.811-0.236,2.424-0.709c0.612-0.473,1.073-1.097,1.382-1.872c0.309-0.776,0.519-1.622,0.63-2.538
		C500.519,272.117,500.574,271.216,500.574,270.329z"/>
	<path fill="#262626" d="M510.252,258.639l0.244-0.245h5.268v4.603c0,0.49,0.006,0.928,0.018,1.313s0.018,0.817,0.018,1.295v9.625
		c0,0.455-0.006,0.873-0.018,1.252s-0.018,0.802-0.018,1.269v4.655h-2.292c-1.004,0-1.791-0.292-2.362-0.875
		c-0.572-0.584-0.857-1.383-0.857-2.398V258.639z M525.582,258.394c0.081,0.42,0.133,0.814,0.156,1.182s0.035,0.709,0.035,1.023
		c0,0.315-0.037,0.703-0.113,1.164s-0.189,0.901-0.342,1.321h-7.156c-0.293,0-0.707-0.006-1.243-0.018s-1.088-0.021-1.653-0.026
		c-0.566-0.006-1.036-0.015-1.409-0.026v-4.62H525.582z M523.499,268.001c0.116,0.339,0.201,0.729,0.254,1.173
		c0.052,0.443,0.079,0.816,0.079,1.12c0,0.314-0.027,0.683-0.079,1.103c-0.053,0.42-0.138,0.811-0.254,1.172h-5.337
		c-0.293,0-0.707-0.005-1.243-0.017s-1.088-0.021-1.653-0.026c-0.566-0.006-1.036-0.015-1.409-0.026v-4.428
		c0.373-0.012,0.843-0.021,1.409-0.026c0.565-0.006,1.117-0.015,1.653-0.026c0.536-0.011,0.95-0.018,1.243-0.018H523.499z
		 M526.457,277.714c0,1.54-0.242,2.707-0.727,3.5c-0.484,0.794-1.467,1.19-2.949,1.19h-8.925v-4.516
		c0.759-0.035,1.481-0.072,2.17-0.113s1.464-0.062,2.327-0.062H526.457z"/>
	<path fill="#262626" d="M528.207,280.217c0.07-0.782,0.312-1.558,0.727-2.328c0.413-0.77,0.895-1.388,1.443-1.854
		c0.979,0.595,2.094,1.126,3.342,1.592c1.248,0.467,2.497,0.7,3.746,0.7c1.014,0,1.743-0.245,2.188-0.734
		c0.442-0.49,0.664-1.016,0.664-1.575c0-0.386-0.122-0.816-0.367-1.295s-0.857-0.922-1.838-1.33l-4.217-1.75
		c-1.447-0.606-2.643-1.418-3.588-2.433c-0.945-1.016-1.418-2.356-1.418-4.025c0-1.458,0.379-2.735,1.139-3.832
		c0.758-1.097,1.781-1.951,3.07-2.564c1.289-0.612,2.727-0.918,4.314-0.918c1.645,0,3.195,0.219,4.654,0.656s2.643,0.89,3.553,1.355
		c-0.047,0.806-0.236,1.578-0.568,2.319c-0.333,0.741-0.773,1.362-1.322,1.863c-0.887-0.42-1.924-0.808-3.114-1.163
		c-1.19-0.356-2.258-0.534-3.202-0.534c-1.004,0-1.719,0.228-2.145,0.683s-0.639,0.916-0.639,1.383c0,0.443,0.148,0.84,0.446,1.189
		c0.298,0.351,0.831,0.688,1.602,1.016l4.305,1.768c1.132,0.466,2.089,1.047,2.87,1.741c0.781,0.693,1.379,1.479,1.794,2.354
		c0.414,0.875,0.621,1.814,0.621,2.817c0,1.412-0.341,2.684-1.024,3.814c-0.682,1.132-1.705,2.03-3.07,2.695
		s-3.068,0.998-5.11,0.998c-1.411,0-2.917-0.226-4.515-0.674C530.948,281.701,529.502,281.057,528.207,280.217z"/>
	<path fill="#262626" d="M555.209,258.394c0.443-0.069,0.977-0.122,1.602-0.157c0.623-0.035,1.169-0.053,1.636-0.053
		c0.443,0,0.979,0.021,1.61,0.062c0.629,0.041,1.172,0.103,1.627,0.184l7.525,23.503c-0.385,0.222-0.884,0.391-1.496,0.507
		c-0.613,0.117-1.182,0.176-1.707,0.176c-0.887,0-1.58-0.208-2.082-0.622s-0.922-1.222-1.26-2.424l-2.503-8.872
		c-0.269-0.979-0.583-2.135-0.944-3.465c-0.362-1.33-0.689-2.572-0.98-3.728h-0.21c-0.116,0.653-0.274,1.377-0.473,2.17
		c-0.198,0.794-0.405,1.584-0.621,2.371c-0.216,0.788-0.417,1.496-0.604,2.126l-3.569,12.163c-0.351,0.081-0.726,0.137-1.129,0.166
		c-0.402,0.029-0.819,0.044-1.251,0.044c-0.42,0-0.896-0.035-1.426-0.105c-0.531-0.069-0.955-0.163-1.27-0.279l-0.21-0.298
		L555.209,258.394z M555.629,277.294c-0.164,0-0.354-0.003-0.568-0.009c-0.217-0.006-0.432-0.012-0.648-0.018
		c-0.216-0.006-0.405-0.009-0.568-0.009h-2.939l1.697-4.357h2.59c0.163,0,0.35-0.003,0.561-0.009
		c0.209-0.006,0.42-0.012,0.629-0.018c0.211-0.006,0.396-0.009,0.561-0.009h2.555c0.164,0,0.35,0.003,0.561,0.009
		c0.209,0.006,0.422,0.012,0.639,0.018c0.215,0.006,0.404,0.009,0.568,0.009h2.678l1.418,4.357h-2.958
		c-0.163,0-0.353,0.003-0.569,0.009c-0.215,0.006-0.432,0.012-0.646,0.018c-0.217,0.006-0.406,0.009-0.569,0.009H555.629z"/>
	<path fill="#262626" d="M589.316,265.796c0,1.12-0.217,2.115-0.648,2.984s-0.974,1.593-1.627,2.17
		c-0.654,0.577-1.313,0.995-1.978,1.251c0.653,0.233,1.198,0.636,1.636,1.208c0.438,0.571,0.791,1.242,1.059,2.012l1.051,2.958
		c0.186,0.549,0.426,1.044,0.717,1.487c0.292,0.443,0.631,0.812,1.016,1.103c-0.361,0.467-0.887,0.857-1.575,1.173
		c-0.688,0.314-1.405,0.473-2.152,0.473c-1.003,0-1.732-0.271-2.188-0.814c-0.455-0.542-0.869-1.35-1.243-2.424l-1.26-3.657
		c-0.198-0.606-0.508-1.123-0.928-1.549s-1.096-0.639-2.029-0.639h-3.728v-4.183c0.455-0.023,1.018-0.049,1.688-0.078
		s1.307-0.053,1.908-0.07c0.6-0.018,1.029-0.026,1.285-0.026c0.887,0,1.566-0.16,2.039-0.481c0.473-0.32,0.799-0.737,0.98-1.251
		c0.181-0.514,0.271-1.062,0.271-1.646c0-0.606-0.091-1.166-0.271-1.68c-0.182-0.513-0.508-0.925-0.98-1.233
		c-0.473-0.31-1.152-0.464-2.039-0.464c-0.244,0-0.504,0-0.778,0s-0.563-0.003-0.866-0.009s-0.624-0.015-0.963-0.026v19.915
		c-0.467,0.081-0.951,0.137-1.452,0.166s-0.944,0.044-1.33,0.044c-0.339,0-0.771-0.015-1.295-0.044s-1.015-0.085-1.47-0.166v-23.73
		l0.244-0.244c1.494-0.035,2.932-0.067,4.314-0.097s2.738-0.044,4.068-0.044c1.622,0,3.077,0.269,4.367,0.806
		c1.289,0.536,2.303,1.364,3.045,2.484C588.945,262.594,589.316,264.035,589.316,265.796z"/>
	<path fill="#262626" d="M610.84,265.796c0,1.12-0.216,2.115-0.646,2.984c-0.432,0.869-0.975,1.593-1.628,2.17
		s-1.313,0.995-1.978,1.251c0.653,0.233,1.199,0.636,1.637,1.208c0.438,0.571,0.789,1.242,1.059,2.012l1.05,2.958
		c0.187,0.549,0.425,1.044,0.718,1.487c0.291,0.443,0.629,0.812,1.015,1.103c-0.362,0.467-0.887,0.857-1.575,1.173
		c-0.688,0.314-1.406,0.473-2.152,0.473c-1.004,0-1.732-0.271-2.188-0.814c-0.455-0.542-0.869-1.35-1.242-2.424l-1.26-3.657
		c-0.199-0.606-0.508-1.123-0.928-1.549s-1.098-0.639-2.03-0.639h-3.728v-4.183c0.455-0.023,1.018-0.049,1.688-0.078
		s1.307-0.053,1.907-0.07c0.602-0.018,1.029-0.026,1.287-0.026c0.887,0,1.566-0.16,2.038-0.481c0.473-0.32,0.8-0.737,0.98-1.251
		s0.271-1.062,0.271-1.646c0-0.606-0.09-1.166-0.271-1.68c-0.181-0.513-0.508-0.925-0.98-1.233c-0.472-0.31-1.151-0.464-2.038-0.464
		c-0.246,0-0.506,0-0.779,0s-0.563-0.003-0.866-0.009s-0.624-0.015-0.962-0.026v19.915c-0.467,0.081-0.951,0.137-1.453,0.166
		s-0.945,0.044-1.33,0.044c-0.338,0-0.77-0.015-1.295-0.044s-1.015-0.085-1.47-0.166v-23.73l0.245-0.244
		c1.493-0.035,2.932-0.067,4.313-0.097s2.739-0.044,4.069-0.044c1.621,0,3.076,0.269,4.365,0.806
		c1.289,0.536,2.305,1.364,3.045,2.484C610.47,262.594,610.84,264.035,610.84,265.796z"/>
	<path fill="#262626" d="M613.36,270.329c0-2.497,0.376-4.679,1.129-6.545c0.753-1.867,1.899-3.319,3.438-4.357
		c1.541-1.039,3.488-1.558,5.846-1.558c1.773,0,3.313,0.3,4.619,0.901c1.307,0.601,2.389,1.449,3.246,2.546
		c0.858,1.097,1.497,2.409,1.917,3.938s0.63,3.22,0.63,5.075c0,2.508-0.379,4.698-1.138,6.571c-0.759,1.872-1.904,3.328-3.438,4.366
		s-3.48,1.558-5.836,1.558c-1.785,0-3.332-0.301-4.638-0.901c-1.308-0.601-2.386-1.453-3.237-2.556s-1.488-2.417-1.908-3.946
		C613.57,273.894,613.36,272.195,613.36,270.329z M619.205,270.329c0,0.922,0.05,1.86,0.149,2.817
		c0.099,0.957,0.304,1.844,0.612,2.66s0.768,1.473,1.374,1.969s1.417,0.743,2.433,0.743c1.003,0,1.809-0.247,2.414-0.743
		c0.607-0.496,1.064-1.152,1.375-1.969c0.309-0.816,0.513-1.703,0.611-2.66c0.1-0.957,0.149-1.896,0.149-2.817
		s-0.05-1.861-0.149-2.817c-0.099-0.957-0.303-1.838-0.611-2.643c-0.311-0.806-0.768-1.455-1.375-1.951
		c-0.605-0.496-1.411-0.744-2.414-0.744c-1.016,0-1.826,0.248-2.433,0.744s-1.065,1.146-1.374,1.951
		c-0.309,0.805-0.514,1.686-0.612,2.643C619.255,268.468,619.205,269.407,619.205,270.329z"/>
	<path fill="#262626" d="M643.67,282.404h-2.362c-1.003,0-1.797-0.292-2.38-0.875c-0.584-0.584-0.875-1.383-0.875-2.398v-20.737
		l0.245-0.228h2.048c1.072,0,1.896,0.277,2.467,0.832c0.572,0.554,0.857,1.455,0.857,2.703V282.404z M653.016,277.574
		c0,1.773-0.289,3.021-0.867,3.744c-0.577,0.724-1.561,1.086-2.948,1.086h-7.893l-3.01-4.061c1.528-0.269,3.042-0.464,4.541-0.586
		c1.499-0.123,2.867-0.184,4.104-0.184H653.016z"/>
	<path fill="#262626" d="M661.957,282.404h-2.362c-1.003,0-1.797-0.292-2.38-0.875c-0.584-0.584-0.875-1.383-0.875-2.398v-20.737
		l0.245-0.228h2.048c1.072,0,1.896,0.277,2.467,0.832c0.572,0.554,0.857,1.455,0.857,2.703V282.404z M671.303,277.574
		c0,1.773-0.289,3.021-0.867,3.744c-0.577,0.724-1.561,1.086-2.948,1.086h-7.893l-3.01-4.061c1.528-0.269,3.042-0.464,4.541-0.586
		c1.499-0.123,2.867-0.184,4.104-0.184H671.303z"/>
	<path fill="#262626" d="M680.035,258.394c0.442-0.069,0.977-0.122,1.601-0.157s1.169-0.053,1.636-0.053
		c0.443,0,0.98,0.021,1.61,0.062s1.173,0.103,1.628,0.184l7.525,23.503c-0.386,0.222-0.885,0.391-1.497,0.507
		c-0.612,0.117-1.181,0.176-1.706,0.176c-0.887,0-1.581-0.208-2.082-0.622c-0.502-0.414-0.922-1.222-1.261-2.424l-2.503-8.872
		c-0.268-0.979-0.583-2.135-0.944-3.465c-0.362-1.33-0.688-2.572-0.979-3.728h-0.211c-0.116,0.653-0.273,1.377-0.473,2.17
		c-0.197,0.794-0.404,1.584-0.621,2.371c-0.216,0.788-0.417,1.496-0.604,2.126l-3.57,12.163c-0.35,0.081-0.726,0.137-1.129,0.166
		c-0.402,0.029-0.819,0.044-1.25,0.044c-0.42,0-0.896-0.035-1.427-0.105c-0.531-0.069-0.954-0.163-1.269-0.279l-0.211-0.298
		L680.035,258.394z M680.455,277.294c-0.164,0-0.354-0.003-0.569-0.009s-0.432-0.012-0.647-0.018
		c-0.217-0.006-0.406-0.009-0.568-0.009h-2.94l1.697-4.357h2.591c0.162,0,0.35-0.003,0.56-0.009s0.42-0.012,0.63-0.018
		s0.396-0.009,0.561-0.009h2.555c0.163,0,0.35,0.003,0.56,0.009s0.423,0.012,0.639,0.018s0.405,0.009,0.569,0.009h2.678l1.417,4.357
		h-2.958c-0.163,0-0.353,0.003-0.568,0.009s-0.432,0.012-0.647,0.018s-0.405,0.009-0.569,0.009H680.455z"/>
	<path fill="#262626" d="M716.398,270.329c0,1.364-0.096,2.681-0.288,3.946s-0.569,2.447-1.129,3.543
		c-0.56,1.098-1.399,2.077-2.521,2.94c-0.536,0.42-1.181,0.759-1.934,1.015c-0.752,0.257-1.525,0.444-2.318,0.561
		s-1.517,0.175-2.17,0.175c-1.004,0-1.986-0.009-2.949-0.026c-0.962-0.018-1.924-0.035-2.887-0.053s-1.951-0.038-2.967-0.061
		l-0.244-0.245v-23.556l0.244-0.244c1.004-0.035,1.986-0.062,2.949-0.079s1.928-0.032,2.896-0.044
		c0.968-0.012,1.953-0.018,2.957-0.018c0.653,0,1.377,0.062,2.17,0.184c0.793,0.123,1.568,0.313,2.328,0.569
		c0.758,0.257,1.399,0.595,1.924,1.015c1.109,0.863,1.943,1.841,2.503,2.932s0.938,2.266,1.138,3.526
		C716.3,267.669,716.398,268.976,716.398,270.329z M710.642,270.329c0-0.887-0.056-1.788-0.167-2.704
		c-0.11-0.916-0.32-1.756-0.629-2.52c-0.31-0.765-0.771-1.383-1.383-1.855c-0.613-0.473-1.42-0.709-2.424-0.709
		c-0.596,0-1.167,0-1.715,0c-0.549,0-1.132-0.011-1.75-0.035v15.663c0.618-0.012,1.201-0.018,1.75-0.018c0.548,0,1.119,0,1.715,0
		c1.004,0,1.811-0.236,2.424-0.709c0.612-0.473,1.073-1.097,1.383-1.872c0.309-0.776,0.519-1.622,0.629-2.538
		C710.586,272.117,710.642,271.216,710.642,270.329z"/>
	<path fill="#262626" d="M718.953,270.329c0-2.497,0.377-4.679,1.129-6.545c0.753-1.867,1.899-3.319,3.439-4.357
		c1.54-1.039,3.488-1.558,5.845-1.558c1.773,0,3.313,0.3,4.62,0.901c1.307,0.601,2.389,1.449,3.246,2.546s1.496,2.409,1.916,3.938
		s0.631,3.22,0.631,5.075c0,2.508-0.38,4.698-1.139,6.571c-0.758,1.872-1.904,3.328-3.438,4.366
		c-1.535,1.038-3.48,1.558-5.837,1.558c-1.784,0-3.331-0.301-4.638-0.901s-2.386-1.453-3.237-2.556s-1.487-2.417-1.907-3.946
		C719.164,273.894,718.953,272.195,718.953,270.329z M724.799,270.329c0,0.922,0.049,1.86,0.148,2.817s0.304,1.844,0.613,2.66
		c0.309,0.816,0.767,1.473,1.373,1.969c0.607,0.496,1.418,0.743,2.433,0.743c1.003,0,1.809-0.247,2.415-0.743
		s1.064-1.152,1.374-1.969c0.309-0.816,0.513-1.703,0.612-2.66s0.148-1.896,0.148-2.817s-0.049-1.861-0.148-2.817
		c-0.1-0.957-0.304-1.838-0.612-2.643c-0.31-0.806-0.768-1.455-1.374-1.951s-1.412-0.744-2.415-0.744
		c-1.015,0-1.825,0.248-2.433,0.744c-0.606,0.496-1.064,1.146-1.373,1.951c-0.31,0.805-0.514,1.686-0.613,2.643
		C724.848,268.468,724.799,269.407,724.799,270.329z"/>
	<path fill="#262626" d="M760.831,265.796c0,1.12-0.216,2.115-0.647,2.984s-0.975,1.593-1.627,2.17
		c-0.654,0.577-1.313,0.995-1.979,1.251c0.654,0.233,1.199,0.636,1.637,1.208c0.438,0.571,0.79,1.242,1.059,2.012l1.051,2.958
		c0.186,0.549,0.425,1.044,0.717,1.487c0.291,0.443,0.63,0.812,1.016,1.103c-0.362,0.467-0.887,0.857-1.576,1.173
		c-0.688,0.314-1.405,0.473-2.152,0.473c-1.003,0-1.732-0.271-2.188-0.814c-0.455-0.542-0.869-1.35-1.242-2.424l-1.26-3.657
		c-0.199-0.606-0.508-1.123-0.928-1.549s-1.097-0.639-2.029-0.639h-3.729v-4.183c0.455-0.023,1.018-0.049,1.689-0.078
		c0.67-0.029,1.307-0.053,1.907-0.07s1.029-0.026,1.286-0.026c0.887,0,1.566-0.16,2.039-0.481c0.473-0.32,0.799-0.737,0.98-1.251
		c0.18-0.514,0.271-1.062,0.271-1.646c0-0.606-0.091-1.166-0.271-1.68c-0.182-0.513-0.508-0.925-0.98-1.233
		c-0.473-0.31-1.152-0.464-2.039-0.464c-0.245,0-0.505,0-0.779,0c-0.273,0-0.563-0.003-0.865-0.009
		c-0.304-0.006-0.625-0.015-0.963-0.026v19.915c-0.467,0.081-0.951,0.137-1.453,0.166c-0.501,0.029-0.944,0.044-1.33,0.044
		c-0.338,0-0.77-0.015-1.295-0.044c-0.524-0.029-1.014-0.085-1.469-0.166v-23.73l0.244-0.244c1.494-0.035,2.932-0.067,4.314-0.097
		c1.382-0.029,2.738-0.044,4.068-0.044c1.621,0,3.076,0.269,4.366,0.806c1.289,0.536,2.304,1.364,3.045,2.484
		S760.831,264.035,760.831,265.796z"/>
</g>
<rect x="464" y="141.701" fill="none" width="281" height="57.598"/>
<g enable-background="new    ">
	<path fill="#E31B6D" d="M481.321,161.2c0.026-1.66-0.084-3.225-0.33-4.695c-0.247-1.47-0.693-2.66-1.341-3.57
		c-0.646-0.91-1.557-1.365-2.729-1.365c-1.721,0-2.943,1.195-3.671,3.585c-0.727,2.39-1.09,5.865-1.09,10.425
		c0,4.26,0.477,7.46,1.431,9.6c0.953,2.141,2.303,3.21,4.05,3.21c1.387,0,2.637-0.439,3.75-1.32c1.113-0.88,2.13-1.84,3.051-2.88
		c0.626,0.64,1.236,1.55,1.83,2.73c0.593,1.18,0.963,2.33,1.109,3.45c-0.773,1.14-1.729,2.195-2.87,3.165
		c-1.14,0.971-2.396,1.75-3.77,2.34c-1.374,0.589-2.801,0.885-4.28,0.885c-2.094,0-3.851-0.615-5.271-1.845s-2.55-2.87-3.391-4.92
		c-0.84-2.05-1.443-4.33-1.81-6.84c-0.367-2.51-0.55-5.055-0.55-7.635c0-5.02,0.529-9.12,1.59-12.3c1.06-3.18,2.477-5.52,4.25-7.02
		s3.727-2.25,5.86-2.25c2.066,0,3.87,0.55,5.41,1.65s2.733,2.59,3.58,4.47c0.847,1.88,1.271,4,1.271,6.36
		c0,1.86-0.323,3.206-0.971,4.035c-0.646,0.83-1.543,1.245-2.689,1.245c-0.467,0-0.891-0.05-1.271-0.15
		S481.707,161.34,481.321,161.2z"/>
	<path fill="#E31B6D" d="M511.003,157.57c0,1.92-0.247,3.625-0.74,5.115c-0.494,1.49-1.113,2.73-1.86,3.72
		c-0.747,0.99-1.5,1.706-2.26,2.145c0.746,0.4,1.37,1.09,1.87,2.07c0.5,0.98,0.902,2.13,1.21,3.45l1.2,5.07
		c0.213,0.94,0.486,1.791,0.819,2.55c0.333,0.76,0.721,1.39,1.16,1.89c-0.413,0.8-1.014,1.47-1.8,2.01
		c-0.787,0.54-1.607,0.81-2.46,0.81c-1.147,0-1.98-0.465-2.5-1.395c-0.521-0.93-0.994-2.315-1.421-4.155l-1.439-6.27
		c-0.228-1.04-0.58-1.925-1.061-2.655c-0.479-0.73-1.253-1.095-2.319-1.095h-4.261v-7.17c0.521-0.04,1.163-0.084,1.93-0.135
		c0.767-0.05,1.494-0.09,2.181-0.12c0.687-0.03,1.177-0.045,1.47-0.045c1.014,0,1.79-0.275,2.33-0.825
		c0.54-0.55,0.913-1.265,1.12-2.145c0.207-0.879,0.311-1.819,0.311-2.82c0-1.04-0.104-2-0.311-2.88
		c-0.207-0.88-0.58-1.585-1.12-2.115c-0.54-0.529-1.316-0.795-2.33-0.795c-0.279,0-0.576,0-0.89,0s-0.644-0.004-0.99-0.015
		c-0.347-0.01-0.714-0.024-1.1-0.045v34.14c-0.534,0.14-1.087,0.235-1.66,0.285c-0.574,0.049-1.08,0.075-1.521,0.075
		c-0.387,0-0.88-0.025-1.479-0.075c-0.601-0.05-1.16-0.146-1.681-0.285v-40.68l0.28-0.42c1.706-0.06,3.35-0.115,4.93-0.165
		c1.58-0.049,3.131-0.075,4.65-0.075c1.854,0,3.517,0.46,4.99,1.38s2.634,2.34,3.48,4.26
		C510.579,152.081,511.003,154.551,511.003,157.57z"/>
	<path fill="#E31B6D" d="M516.082,144.88c0.521-0.14,1.087-0.235,1.7-0.285c0.613-0.049,1.12-0.075,1.52-0.075
		c0.427,0,0.934,0.025,1.521,0.075c0.587,0.05,1.146,0.146,1.68,0.285v40.98c-0.533,0.14-1.093,0.235-1.68,0.285
		c-0.587,0.049-1.094,0.075-1.521,0.075c-0.399,0-0.906-0.025-1.52-0.075c-0.613-0.05-1.18-0.146-1.7-0.285V144.88z"/>
	<path fill="#E31B6D" d="M526.241,182.291c0.08-1.34,0.357-2.67,0.83-3.99c0.474-1.32,1.023-2.38,1.65-3.18
		c1.12,1.02,2.394,1.931,3.82,2.73s2.854,1.2,4.28,1.2c1.16,0,1.993-0.42,2.5-1.26c0.507-0.84,0.76-1.74,0.76-2.7
		c0-0.66-0.14-1.4-0.42-2.22c-0.28-0.82-0.979-1.58-2.1-2.28l-4.82-3c-1.653-1.04-3.021-2.43-4.101-4.17
		c-1.08-1.74-1.62-4.04-1.62-6.9c0-2.5,0.434-4.69,1.3-6.57c0.867-1.879,2.037-3.345,3.511-4.395c1.473-1.05,3.116-1.575,4.93-1.575
		c1.881,0,3.653,0.375,5.32,1.125s3.021,1.525,4.061,2.325c-0.054,1.38-0.27,2.706-0.65,3.975c-0.38,1.271-0.883,2.335-1.51,3.195
		c-1.014-0.72-2.2-1.385-3.561-1.995c-1.359-0.61-2.58-0.915-3.66-0.915c-1.146,0-1.963,0.39-2.449,1.17
		c-0.487,0.78-0.73,1.57-0.73,2.37c0,0.76,0.17,1.44,0.51,2.04c0.34,0.6,0.95,1.18,1.83,1.74l4.921,3.03
		c1.293,0.8,2.387,1.795,3.279,2.985c0.894,1.19,1.577,2.535,2.051,4.035c0.473,1.5,0.71,3.11,0.71,4.83
		c0,2.42-0.391,4.601-1.17,6.54c-0.78,1.94-1.95,3.48-3.511,4.62c-1.56,1.14-3.507,1.71-5.84,1.71c-1.613,0-3.334-0.385-5.16-1.155
		C529.375,184.835,527.722,183.73,526.241,182.291z"/>
	<path fill="#E31B6D" d="M547.443,152.86c-0.094-0.72-0.153-1.425-0.181-2.115c-0.026-0.69-0.04-1.305-0.04-1.845
		c0-0.56,0.014-1.19,0.04-1.89c0.027-0.7,0.087-1.41,0.181-2.13h19.801c0.093,0.5,0.17,1.085,0.229,1.755
		c0.061,0.67,0.091,1.315,0.091,1.935c0,1.56-0.271,2.666-0.811,3.315c-0.54,0.65-1.384,0.975-2.53,0.975h-1.18
		c-0.294,0-0.714-0.01-1.26-0.03c-0.547-0.02-0.968-0.03-1.261-0.03h-6.42c-0.294,0-0.714,0.01-1.26,0.03
		c-0.547,0.02-0.968,0.03-1.261,0.03H547.443z M554.104,157.24c0-0.82,0.007-1.555,0.02-2.205c0.014-0.649,0.021-1.395,0.021-2.235
		v-3.96h6.34v3.96c0,0.84,0.007,1.585,0.021,2.235c0.013,0.65,0.02,1.385,0.02,2.205v28.62c-0.547,0.14-1.106,0.235-1.68,0.285
		c-0.573,0.049-1.08,0.075-1.521,0.075c-0.453,0-0.967-0.025-1.54-0.075c-0.573-0.05-1.133-0.146-1.68-0.285V157.24z"/>
	<path fill="#E31B6D" d="M570.583,144.88c0.521-0.14,1.087-0.235,1.7-0.285c0.613-0.049,1.12-0.075,1.52-0.075
		c0.427,0,0.934,0.025,1.521,0.075c0.587,0.05,1.146,0.146,1.68,0.285v40.98c-0.533,0.14-1.093,0.235-1.68,0.285
		c-0.587,0.049-1.094,0.075-1.521,0.075c-0.399,0-0.906-0.025-1.52-0.075c-0.613-0.05-1.18-0.146-1.7-0.285V144.88z"/>
	<path fill="#E31B6D" d="M589.324,144.88c0.507-0.12,1.116-0.21,1.83-0.27c0.713-0.06,1.337-0.09,1.87-0.09
		c0.507,0,1.12,0.035,1.84,0.105c0.72,0.07,1.34,0.175,1.86,0.315l8.601,40.29c-0.44,0.38-1.011,0.67-1.711,0.87
		c-0.699,0.199-1.35,0.3-1.949,0.3c-1.014,0-1.808-0.355-2.381-1.065c-0.573-0.71-1.053-2.095-1.439-4.155l-2.86-15.21
		c-0.307-1.68-0.667-3.66-1.08-5.94c-0.413-2.28-0.787-4.41-1.12-6.39h-0.24c-0.133,1.121-0.313,2.36-0.54,3.72
		c-0.227,1.36-0.463,2.715-0.71,4.065s-0.477,2.565-0.689,3.645l-4.081,20.85c-0.399,0.14-0.83,0.235-1.29,0.285
		c-0.46,0.049-0.937,0.075-1.43,0.075c-0.48,0-1.023-0.06-1.63-0.18c-0.607-0.12-1.09-0.28-1.45-0.48l-0.24-0.51L589.324,144.88z
		 M589.804,177.28c-0.187,0-0.403-0.004-0.649-0.015c-0.247-0.01-0.494-0.02-0.74-0.03c-0.247-0.01-0.464-0.015-0.65-0.015h-3.36
		l1.94-7.47h2.96c0.187,0,0.4-0.005,0.641-0.015c0.239-0.01,0.479-0.02,0.72-0.03s0.453-0.015,0.64-0.015h2.921
		c0.187,0,0.399,0.005,0.64,0.015s0.483,0.02,0.73,0.03c0.246,0.01,0.463,0.015,0.649,0.015h3.061l1.62,7.47h-3.381
		c-0.187,0-0.403,0.005-0.649,0.015c-0.247,0.01-0.493,0.02-0.74,0.03c-0.247,0.011-0.464,0.015-0.65,0.015H589.804z"/>
	<path fill="#E31B6D" d="M608.704,145.061c0.493-0.18,1.146-0.315,1.96-0.405s1.42-0.135,1.82-0.135c0.413,0,0.96,0.025,1.64,0.075
		c0.681,0.05,1.374,0.146,2.081,0.285l-1.62,10.92l-0.421,0.21c0.107,1.7,0.197,3.625,0.271,5.775c0.073,2.15,0.13,4.295,0.17,6.435
		c0.04,2.141,0.06,4.041,0.06,5.7v11.94c-0.52,0.14-1.033,0.235-1.54,0.285c-0.507,0.049-0.96,0.075-1.359,0.075
		c-0.387,0-0.87-0.025-1.45-0.075c-0.58-0.05-1.117-0.146-1.61-0.285V145.061z M616.564,164.38c-0.439-1.54-0.856-3.05-1.25-4.53
		s-0.724-2.8-0.99-3.96l-2.96-5.13l4.841-5.88l6.16,21.42c0.506,1.76,0.979,3.445,1.42,5.055c0.439,1.61,0.8,2.965,1.08,4.065
		l3.24,5.25l-5.221,5.19L616.564,164.38z M630.445,144.88v40.8c-0.507,0.18-1.17,0.315-1.99,0.405
		c-0.82,0.09-1.443,0.135-1.87,0.135c-0.413,0-0.96-0.025-1.64-0.075c-0.681-0.05-1.367-0.146-2.061-0.285l1.681-10.35l0.46-0.21
		c-0.107-1.86-0.197-3.9-0.271-6.12c-0.073-2.22-0.13-4.36-0.17-6.42c-0.04-2.06-0.06-3.78-0.06-5.16v-7.32
		c0-2.14,0.29-3.64,0.87-4.5c0.579-0.859,1.482-1.29,2.71-1.29h2.08L630.445,144.88z"/>
	<path fill="#E31B6D" d="M659.627,161.2c0.026-1.66-0.084-3.225-0.33-4.695c-0.247-1.47-0.693-2.66-1.341-3.57
		c-0.646-0.91-1.557-1.365-2.729-1.365c-1.721,0-2.943,1.195-3.671,3.585c-0.727,2.39-1.09,5.865-1.09,10.425
		c0,4.26,0.477,7.46,1.431,9.6c0.953,2.141,2.303,3.21,4.05,3.21c1.387,0,2.637-0.439,3.75-1.32c1.113-0.88,2.13-1.84,3.051-2.88
		c0.626,0.64,1.236,1.55,1.83,2.73c0.593,1.18,0.963,2.33,1.109,3.45c-0.773,1.14-1.729,2.195-2.87,3.165
		c-1.14,0.971-2.396,1.75-3.77,2.34c-1.374,0.589-2.801,0.885-4.28,0.885c-2.094,0-3.851-0.615-5.271-1.845s-2.55-2.87-3.391-4.92
		c-0.84-2.05-1.443-4.33-1.81-6.84c-0.367-2.51-0.55-5.055-0.55-7.635c0-5.02,0.529-9.12,1.59-12.3c1.06-3.18,2.477-5.52,4.25-7.02
		s3.727-2.25,5.86-2.25c2.066,0,3.87,0.55,5.41,1.65s2.733,2.59,3.58,4.47c0.847,1.88,1.271,4,1.271,6.36
		c0,1.86-0.323,3.206-0.971,4.035c-0.646,0.83-1.543,1.245-2.689,1.245c-0.467,0-0.891-0.05-1.271-0.15
		S660.013,161.34,659.627,161.2z"/>
	<path fill="#E31B6D" d="M675.847,144.88c0.507-0.12,1.116-0.21,1.83-0.27c0.713-0.06,1.337-0.09,1.87-0.09
		c0.507,0,1.12,0.035,1.84,0.105c0.72,0.07,1.34,0.175,1.86,0.315l8.601,40.29c-0.44,0.38-1.011,0.67-1.711,0.87
		c-0.699,0.199-1.35,0.3-1.949,0.3c-1.014,0-1.808-0.355-2.381-1.065c-0.573-0.71-1.053-2.095-1.439-4.155l-2.86-15.21
		c-0.307-1.68-0.667-3.66-1.08-5.94c-0.413-2.28-0.787-4.41-1.12-6.39h-0.24c-0.133,1.121-0.313,2.36-0.54,3.72
		c-0.227,1.36-0.463,2.715-0.71,4.065s-0.477,2.565-0.689,3.645l-4.081,20.85c-0.399,0.14-0.83,0.235-1.29,0.285
		c-0.46,0.049-0.937,0.075-1.43,0.075c-0.48,0-1.023-0.06-1.63-0.18c-0.607-0.12-1.09-0.28-1.45-0.48l-0.24-0.51L675.847,144.88z
		 M676.326,177.28c-0.187,0-0.403-0.004-0.649-0.015c-0.247-0.01-0.494-0.02-0.74-0.03c-0.247-0.01-0.464-0.015-0.65-0.015h-3.36
		l1.94-7.47h2.96c0.187,0,0.4-0.005,0.641-0.015c0.239-0.01,0.479-0.02,0.72-0.03s0.453-0.015,0.64-0.015h2.921
		c0.187,0,0.399,0.005,0.64,0.015s0.483,0.02,0.73,0.03c0.246,0.01,0.463,0.015,0.649,0.015h3.061l1.62,7.47h-3.381
		c-0.187,0-0.403,0.005-0.649,0.015c-0.247,0.01-0.493,0.02-0.74,0.03c-0.247,0.011-0.464,0.015-0.65,0.015H676.326z"/>
	<path fill="#E31B6D" d="M701.607,186.041h-2.7c-1.147,0-2.054-0.5-2.721-1.5s-1-2.37-1-4.11v-35.55l0.28-0.39h2.34
		c1.227,0,2.167,0.476,2.82,1.425c0.653,0.95,0.98,2.495,0.98,4.635V186.041z M712.287,177.76c0,3.041-0.33,5.18-0.989,6.42
		c-0.66,1.241-1.784,1.86-3.37,1.86h-9.021l-3.44-6.96c1.746-0.46,3.477-0.795,5.19-1.005c1.713-0.21,3.276-0.315,4.69-0.315
		H712.287z"/>
	<path fill="#E31B6D" d="M722.269,144.88c0.507-0.12,1.116-0.21,1.83-0.27c0.713-0.06,1.337-0.09,1.87-0.09
		c0.507,0,1.12,0.035,1.84,0.105c0.72,0.07,1.34,0.175,1.86,0.315l8.601,40.29c-0.44,0.38-1.011,0.67-1.711,0.87
		c-0.699,0.199-1.35,0.3-1.949,0.3c-1.014,0-1.808-0.355-2.381-1.065c-0.573-0.71-1.053-2.095-1.439-4.155l-2.86-15.21
		c-0.307-1.68-0.667-3.66-1.08-5.94c-0.413-2.28-0.787-4.41-1.12-6.39h-0.24c-0.133,1.121-0.313,2.36-0.54,3.72
		c-0.227,1.36-0.463,2.715-0.71,4.065s-0.477,2.565-0.689,3.645l-4.081,20.85c-0.399,0.14-0.83,0.235-1.29,0.285
		c-0.46,0.049-0.937,0.075-1.43,0.075c-0.48,0-1.023-0.06-1.63-0.18c-0.607-0.12-1.09-0.28-1.45-0.48l-0.24-0.51L722.269,144.88z
		 M722.748,177.28c-0.187,0-0.403-0.004-0.649-0.015c-0.247-0.01-0.494-0.02-0.74-0.03c-0.247-0.01-0.464-0.015-0.65-0.015h-3.36
		l1.94-7.47h2.96c0.187,0,0.4-0.005,0.641-0.015c0.239-0.01,0.479-0.02,0.72-0.03s0.453-0.015,0.64-0.015h2.921
		c0.187,0,0.399,0.005,0.64,0.015s0.483,0.02,0.73,0.03c0.246,0.01,0.463,0.015,0.649,0.015h3.061l1.62,7.47h-3.381
		c-0.187,0-0.403,0.005-0.649,0.015c-0.247,0.01-0.493,0.02-0.74,0.03c-0.247,0.011-0.464,0.015-0.65,0.015H722.748z"/>
</g>
<path fill="#5A6AC1" d="M418.333,0c0,0-276.083,126.917-287.083,144.25S88.333,400,88.333,400H0V246.333L236.117,0H418.333z"/>
<rect x="335.167" y="339.403" fill="none" width="269.333" height="35"/>
<g enable-background="new    ">
	<path fill="#262626" d="M341.168,340.083c0.151,2.573,0.311,5.14,0.48,7.7c0.169,2.56,0.253,5.146,0.253,7.76v3.46
		c-0.382,0.173-0.865,0.287-1.447,0.34c-0.583,0.054-1.165,0.051-1.747-0.01c-0.583-0.06-1.065-0.17-1.447-0.33v-3.54
		c0-2.56,0.095-5.12,0.287-7.68c0.191-2.561,0.354-5.127,0.487-7.7c0.275-0.12,0.551-0.196,0.827-0.229
		c0.275-0.033,0.515-0.051,0.72-0.051c0.187,0,0.431,0.018,0.733,0.051S340.902,339.963,341.168,340.083z M339.582,337.283
		c-0.355,0-0.709-0.057-1.06-0.17s-0.651-0.276-0.9-0.49c-0.098-0.253-0.173-0.62-0.227-1.1c-0.053-0.48-0.08-0.907-0.08-1.28
		c0-0.36,0.027-0.776,0.08-1.25s0.129-0.83,0.227-1.07c0.249-0.213,0.549-0.376,0.9-0.49c0.351-0.112,0.705-0.17,1.06-0.17
		c0.365,0,0.722,0.058,1.074,0.17c0.351,0.114,0.655,0.277,0.913,0.49c0.089,0.24,0.158,0.597,0.207,1.07
		c0.048,0.474,0.073,0.89,0.073,1.25c0,0.373-0.025,0.8-0.073,1.28c-0.049,0.479-0.118,0.847-0.207,1.1
		c-0.258,0.214-0.562,0.377-0.913,0.49C340.304,337.227,339.946,337.283,339.582,337.283z"/>
	<path fill="#262626" d="M345.609,324.343c0.347-0.093,0.724-0.156,1.133-0.189c0.409-0.033,0.742-0.05,1-0.05
		c0.285,0,0.625,0.017,1.02,0.05s0.771,0.097,1.127,0.189v27.32c-0.356,0.093-0.731,0.156-1.127,0.19
		c-0.396,0.032-0.735,0.05-1.02,0.05c-0.258,0-0.591-0.018-1-0.05c-0.409-0.034-0.787-0.098-1.133-0.19V324.343z M354.289,326.323
		c0.258-0.747,0.534-1.3,0.827-1.66c0.293-0.36,0.751-0.54,1.374-0.54c0.347,0,0.755,0.017,1.227,0.05
		c0.471,0.033,0.915,0.077,1.333,0.13l0.227,0.44l-3.227,9.18c-0.507,1.44-1.153,2.57-1.94,3.391
		c-0.787,0.819-1.838,1.229-3.154,1.229h-3.24v-3.6c0.471-0.014,0.947-0.026,1.427-0.04c0.48-0.014,0.951-0.026,1.414-0.04
		c0.338,0,0.578-0.09,0.72-0.271c0.142-0.18,0.307-0.543,0.493-1.09L354.289,326.323z M359.956,350.083
		c-0.275,0.613-0.673,1.087-1.193,1.42s-1.064,0.5-1.633,0.5c-0.773,0-1.333-0.3-1.68-0.899c-0.347-0.601-0.649-1.514-0.907-2.74
		l-1-4.681c-0.267-1.266-0.591-2.166-0.973-2.699c-0.382-0.533-0.889-0.801-1.521-0.801c-0.4,0-0.886,0.034-1.46,0.101
		c-0.573,0.066-1.198,0.146-1.874,0.24v-3.92h5.307c1.004,0,1.795,0.213,2.374,0.64c0.578,0.427,1.022,1,1.333,1.72
		c0.311,0.72,0.56,1.527,0.747,2.42l1.093,4.94c0.178,0.787,0.331,1.399,0.46,1.84s0.265,0.8,0.407,1.08
		S359.751,349.803,359.956,350.083z"/>
	<path fill="#262626" d="M363.29,343.703v-4.3h5.027v-0.46c0-0.613-0.058-1.177-0.173-1.69c-0.116-0.513-0.302-0.927-0.56-1.24
		c-0.258-0.313-0.596-0.47-1.013-0.47c-0.649,0-1.104,0.4-1.367,1.2s-0.394,2.033-0.394,3.7v1.88c0,0.92,0.053,1.77,0.16,2.55
		c0.106,0.78,0.333,1.41,0.68,1.89c0.347,0.48,0.875,0.721,1.586,0.721c0.604,0,1.198-0.117,1.78-0.351
		c0.582-0.232,1.14-0.517,1.673-0.85c0.311,0.467,0.56,1.047,0.747,1.74c0.187,0.693,0.311,1.347,0.374,1.96
		c-0.676,0.733-1.482,1.297-2.42,1.689c-0.938,0.394-1.883,0.59-2.833,0.59c-1.165,0-2.131-0.293-2.9-0.88
		c-0.769-0.586-1.375-1.373-1.82-2.359c-0.445-0.987-0.758-2.104-0.94-3.351c-0.182-1.246-0.273-2.529-0.273-3.85
		c0-2.014,0.202-3.83,0.607-5.45c0.404-1.62,1.047-2.903,1.927-3.85c0.88-0.947,2.027-1.42,3.44-1.42
		c1.165,0,2.163,0.373,2.994,1.119c0.831,0.747,1.467,1.761,1.907,3.04c0.44,1.28,0.66,2.721,0.66,4.32
		c0,0.894-0.027,1.637-0.08,2.23c-0.053,0.593-0.146,1.223-0.28,1.89H363.29z"/>
	<path fill="#262626" d="M376.53,343.703v-4.3h5.027v-0.46c0-0.613-0.058-1.177-0.173-1.69c-0.116-0.513-0.302-0.927-0.56-1.24
		c-0.258-0.313-0.596-0.47-1.013-0.47c-0.649,0-1.104,0.4-1.367,1.2s-0.394,2.033-0.394,3.7v1.88c0,0.92,0.053,1.77,0.16,2.55
		c0.106,0.78,0.333,1.41,0.68,1.89c0.347,0.48,0.875,0.721,1.586,0.721c0.604,0,1.198-0.117,1.78-0.351
		c0.582-0.232,1.14-0.517,1.673-0.85c0.311,0.467,0.56,1.047,0.747,1.74c0.187,0.693,0.311,1.347,0.374,1.96
		c-0.676,0.733-1.482,1.297-2.42,1.689c-0.938,0.394-1.883,0.59-2.833,0.59c-1.165,0-2.131-0.293-2.9-0.88
		c-0.769-0.586-1.375-1.373-1.82-2.359c-0.445-0.987-0.758-2.104-0.94-3.351c-0.182-1.246-0.273-2.529-0.273-3.85
		c0-2.014,0.202-3.83,0.607-5.45c0.404-1.62,1.047-2.903,1.927-3.85c0.88-0.947,2.027-1.42,3.44-1.42
		c1.165,0,2.163,0.373,2.994,1.119c0.831,0.747,1.467,1.761,1.907,3.04c0.44,1.28,0.66,2.721,0.66,4.32
		c0,0.894-0.027,1.637-0.08,2.23c-0.053,0.593-0.146,1.223-0.28,1.89H376.53z"/>
	<path fill="#262626" d="M389.184,331.423c0.844,0,1.522,0.471,2.033,1.41c0.511,0.94,0.767,2.23,0.767,3.87v19.84
		c0,1.387-0.175,2.36-0.526,2.92c-0.352,0.561-0.936,0.84-1.753,0.84h-1.627l-0.187-0.279v-28.32l0.187-0.28H389.184z
		 M399.798,341.443c0,2.293-0.242,4.229-0.727,5.81c-0.485,1.58-1.132,2.777-1.94,3.59c-0.809,0.813-1.702,1.221-2.68,1.221
		c-0.924,0-1.745-0.287-2.46-0.86c-0.716-0.573-1.367-1.133-1.954-1.68l0.667-4.42c0.515,0.626,1.04,1.166,1.573,1.619
		c0.533,0.454,1.013,0.681,1.44,0.681c0.436,0,0.785-0.243,1.047-0.73c0.262-0.486,0.456-1.18,0.58-2.08
		c0.125-0.899,0.187-1.963,0.187-3.189c0-1.24-0.069-2.247-0.207-3.021c-0.138-0.772-0.329-1.343-0.573-1.71
		c-0.245-0.366-0.522-0.55-0.833-0.55c-0.276,0-0.603,0.127-0.98,0.38c-0.378,0.254-0.747,0.743-1.107,1.47
		c-0.36,0.728-0.66,1.797-0.9,3.21l-0.934-3.539c0.089-1.08,0.365-2.12,0.827-3.12c0.462-1,1.056-1.82,1.78-2.46
		c0.725-0.641,1.522-0.96,2.394-0.96c1.084,0,1.982,0.439,2.694,1.319c0.711,0.88,1.239,2.097,1.586,3.65
		S399.798,339.417,399.798,341.443z"/>
	<path fill="#262626" d="M409.852,331.423c0.791,0,1.393,0.407,1.807,1.221c0.413,0.813,0.62,1.92,0.62,3.319v15.7
		c-0.294,0.08-0.625,0.14-0.994,0.18s-0.731,0.061-1.086,0.061c-0.347,0-0.707-0.021-1.08-0.061c-0.374-0.04-0.712-0.1-1.014-0.18
		v-19.96l0.187-0.28H409.852z M415.238,339.623c0-1.066-0.129-1.78-0.387-2.14c-0.258-0.36-0.529-0.54-0.813-0.54
		c-0.383,0.013-0.785,0.239-1.207,0.68s-0.807,0.98-1.153,1.62s-0.596,1.267-0.747,1.88v-5.4c0.418-0.706,0.878-1.396,1.381-2.069
		c0.502-0.674,1.042-1.227,1.62-1.66c0.577-0.434,1.187-0.65,1.826-0.65c0.773,0,1.434,0.271,1.98,0.811s0.962,1.287,1.247,2.24
		c0.284,0.953,0.426,2.036,0.426,3.25v14.02c-0.293,0.08-0.624,0.14-0.993,0.18s-0.731,0.061-1.087,0.061
		c-0.347,0-0.706-0.021-1.08-0.061c-0.373-0.04-0.711-0.1-1.013-0.18V339.623z M422.372,339.583c0-1.066-0.136-1.773-0.407-2.12
		s-0.549-0.52-0.833-0.52c-0.355,0-0.74,0.224-1.153,0.67c-0.414,0.446-0.803,1.01-1.167,1.689c-0.364,0.681-0.649,1.36-0.854,2.04
		v-5.779c0.392-0.721,0.86-1.403,1.407-2.051c0.546-0.646,1.131-1.17,1.753-1.569c0.622-0.4,1.249-0.601,1.88-0.601
		c0.782,0,1.436,0.277,1.961,0.83c0.523,0.554,0.92,1.311,1.187,2.271s0.399,2.053,0.399,3.279v8.94c0,0.787,0.049,1.517,0.147,2.19
		c0.098,0.673,0.271,1.27,0.52,1.79c-0.312,0.387-0.691,0.706-1.14,0.96c-0.449,0.253-0.937,0.38-1.461,0.38
		c-0.835,0-1.418-0.333-1.746-1c-0.329-0.667-0.493-1.627-0.493-2.88V339.583z"/>
	<path fill="#262626" d="M441.199,341.683c0,2.134-0.236,3.994-0.707,5.58c-0.472,1.587-1.165,2.817-2.08,3.69
		c-0.916,0.873-2.04,1.31-3.374,1.31c-1.351,0-2.484-0.439-3.399-1.319c-0.916-0.88-1.605-2.113-2.067-3.7s-0.693-3.44-0.693-5.561
		c0-2.146,0.233-4.01,0.7-5.59s1.158-2.807,2.073-3.68c0.916-0.873,2.045-1.31,3.387-1.31c1.352,0,2.482,0.439,3.394,1.319
		s1.601,2.11,2.067,3.69S441.199,339.55,441.199,341.683z M433.158,341.683c0,1.094,0.042,2.087,0.127,2.98
		c0.084,0.894,0.26,1.604,0.526,2.13c0.267,0.527,0.676,0.79,1.227,0.79c0.543,0,0.949-0.263,1.221-0.79
		c0.271-0.526,0.448-1.236,0.533-2.13c0.084-0.894,0.127-1.887,0.127-2.98c0-1.106-0.043-2.106-0.127-3
		c-0.085-0.893-0.263-1.603-0.533-2.13c-0.271-0.526-0.678-0.79-1.221-0.79c-0.551,0-0.96,0.264-1.227,0.79
		c-0.267,0.527-0.442,1.237-0.526,2.13C433.2,339.576,433.158,340.576,433.158,341.683z"/>
	<path fill="#262626" d="M460.427,351.663c-0.293,0.08-0.625,0.14-0.993,0.18c-0.369,0.04-0.731,0.061-1.087,0.061
		c-0.347,0-0.707-0.021-1.08-0.061s-0.711-0.1-1.014-0.18v-13.24c0-0.666-0.091-1.22-0.273-1.66
		c-0.182-0.439-0.513-0.659-0.993-0.659h-1.053l-2.947,15.56c-0.489,0.08-1.009,0.14-1.561,0.18
		c-0.551,0.04-1.089,0.061-1.613,0.061c-0.791,0-1.413-0.197-1.866-0.59c-0.453-0.394-0.796-1.19-1.027-2.391l-3.187-16.74
		c0.364-0.227,0.754-0.423,1.167-0.59c0.413-0.166,0.789-0.25,1.127-0.25c0.657,0,1.182,0.217,1.573,0.65
		c0.391,0.434,0.671,1.189,0.84,2.27l1.2,7.46c0.08,0.521,0.157,1.08,0.233,1.681c0.075,0.6,0.142,1.18,0.2,1.74
		c0.058,0.56,0.108,1.039,0.153,1.439c0.026,0.214,0.115,0.32,0.267,0.32l2.307-14.98c0.24-0.12,0.573-0.206,1-0.26
		c0.427-0.053,0.805-0.08,1.133-0.08h4.614c0.871,0,1.568,0.434,2.093,1.3c0.524,0.867,0.787,2.014,0.787,3.44V351.663z
		 M455.453,326.083c0-0.826,0.103-1.606,0.307-2.34c0.231-0.173,0.529-0.32,0.894-0.44s0.729-0.18,1.094-0.18
		c0.355,0,0.722,0.06,1.1,0.18s0.669,0.268,0.873,0.44c0.107,0.373,0.185,0.767,0.233,1.18c0.049,0.414,0.073,0.8,0.073,1.16
		c0,0.813-0.102,1.587-0.307,2.32c-0.204,0.173-0.495,0.319-0.873,0.439s-0.744,0.181-1.1,0.181c-0.365,0-0.736-0.057-1.114-0.17
		s-0.669-0.264-0.873-0.45C455.556,327.67,455.453,326.896,455.453,326.083z"/>
	<path fill="#262626" d="M465.333,331.423c0.8,0,1.402,0.407,1.807,1.221c0.404,0.813,0.607,1.92,0.607,3.319v15.7
		c-0.294,0.08-0.625,0.14-0.994,0.18s-0.731,0.061-1.086,0.061c-0.347,0-0.707-0.021-1.08-0.061c-0.374-0.04-0.712-0.1-1.014-0.18
		v-19.96l0.187-0.28H465.333z M475.04,346.663c0,0.787,0.049,1.517,0.146,2.19c0.099,0.673,0.271,1.27,0.521,1.79
		c-0.312,0.387-0.693,0.706-1.146,0.96c-0.453,0.253-0.938,0.38-1.454,0.38c-0.835,0-1.418-0.333-1.746-1
		c-0.329-0.667-0.493-1.627-0.493-2.88v-8.5c0-0.907-0.078-1.577-0.233-2.011c-0.156-0.433-0.456-0.649-0.9-0.649
		c-0.275,0-0.596,0.113-0.96,0.34s-0.725,0.59-1.08,1.09s-0.671,1.17-0.947,2.01v-5.479c0.623-0.907,1.301-1.727,2.034-2.46
		s1.575-1.101,2.526-1.101c0.809,0,1.491,0.304,2.047,0.91c0.556,0.607,0.976,1.443,1.26,2.51c0.285,1.067,0.427,2.301,0.427,3.7
		V346.663z"/>
	<path fill="#262626" d="M477.427,341.723c0-2.293,0.242-4.229,0.727-5.81s1.134-2.776,1.946-3.59
		c0.813-0.813,1.705-1.22,2.674-1.22c0.862,0,1.601,0.213,2.214,0.64s1.12,0.95,1.52,1.57c0.4,0.619,0.716,1.217,0.947,1.79
		l-0.681,5.1c-0.516-1.44-1.068-2.543-1.66-3.31c-0.591-0.767-1.126-1.15-1.606-1.15c-0.436,0-0.786,0.243-1.054,0.729
		c-0.267,0.487-0.46,1.181-0.58,2.08c-0.119,0.9-0.18,1.971-0.18,3.21c0,1.854,0.148,3.197,0.447,4.03
		c0.297,0.834,0.673,1.25,1.126,1.25c0.533,0,1.056-0.273,1.567-0.82c0.511-0.546,0.939-1.359,1.286-2.439l0.587,4.34
		c-0.293,0.76-0.671,1.437-1.134,2.03c-0.462,0.593-0.979,1.06-1.553,1.399c-0.573,0.341-1.172,0.511-1.794,0.511
		c-1.084,0-1.982-0.44-2.693-1.32s-1.24-2.097-1.587-3.65C477.6,345.54,477.427,343.75,477.427,341.723z M490.067,334.583
		c-0.223,0.24-0.402,0.623-0.54,1.15c-0.138,0.526-0.207,1.104-0.207,1.729v10.561c0,1.866-0.056,3.406-0.166,4.62
		c-0.111,1.213-0.27,2.206-0.474,2.979c-0.205,0.773-0.449,1.427-0.733,1.96c-0.524,1-1.223,1.736-2.094,2.21s-1.84,0.71-2.906,0.71
		c-0.836,0-1.707-0.123-2.614-0.37c-0.906-0.247-1.706-0.563-2.399-0.95c0-0.733,0.098-1.539,0.293-2.42
		c0.195-0.88,0.44-1.58,0.733-2.1c0.568,0.373,1.164,0.667,1.787,0.88c0.622,0.213,1.227,0.32,1.813,0.32
		c0.648,0,1.171-0.167,1.566-0.5c0.396-0.334,0.682-0.804,0.86-1.41c0.178-0.606,0.267-1.323,0.267-2.15v-14.42
		c0-1.653,0.298-3.06,0.894-4.22c0.595-1.16,1.479-1.753,2.653-1.78c0.258,0.308,0.52,0.777,0.786,1.41
		C489.854,333.427,490.014,334.023,490.067,334.583z"/>
	<path fill="#262626" d="M501.108,331.743l5.24-0.08c0.098,0.693,0.146,1.42,0.146,2.18c0,0.348-0.012,0.724-0.033,1.13
		c-0.022,0.407-0.061,0.784-0.113,1.131l-5.294-0.12l-4.267,0.12c-0.054-0.347-0.094-0.724-0.12-1.131
		c-0.027-0.406-0.04-0.782-0.04-1.13c0-0.76,0.053-1.486,0.16-2.18L501.108,331.743z M499.081,334.303
		c-0.054-0.88-0.124-1.75-0.213-2.609c-0.089-0.86-0.134-1.743-0.134-2.65c0-1.333,0.195-2.523,0.587-3.57
		c0.391-1.046,0.934-1.876,1.627-2.489s1.507-0.92,2.439-0.92c0.827,0,1.601,0.119,2.32,0.359s1.307,0.487,1.76,0.74
		c0.019,0.707-0.06,1.467-0.232,2.28c-0.174,0.813-0.394,1.427-0.66,1.84c-0.267-0.106-0.587-0.22-0.96-0.34
		c-0.374-0.12-0.738-0.181-1.094-0.181c-0.569,0-1.012,0.23-1.327,0.69s-0.473,1.137-0.473,2.03c0,0.746,0.053,1.557,0.16,2.43
		c0.106,0.873,0.195,1.684,0.267,2.43v17.32c-0.632,0.16-1.32,0.24-2.067,0.24c-0.702,0-1.369-0.08-2-0.24V334.303z"/>
	<path fill="#262626" d="M519.242,341.683c0,2.134-0.236,3.994-0.707,5.58c-0.472,1.587-1.165,2.817-2.08,3.69
		c-0.916,0.873-2.04,1.31-3.374,1.31c-1.351,0-2.484-0.439-3.399-1.319c-0.916-0.88-1.605-2.113-2.067-3.7s-0.693-3.44-0.693-5.561
		c0-2.146,0.233-4.01,0.7-5.59s1.158-2.807,2.073-3.68c0.916-0.873,2.045-1.31,3.387-1.31c1.352,0,2.482,0.439,3.394,1.319
		s1.601,2.11,2.067,3.69S519.242,339.55,519.242,341.683z M511.201,341.683c0,1.094,0.042,2.087,0.127,2.98
		c0.084,0.894,0.26,1.604,0.526,2.13c0.267,0.527,0.676,0.79,1.227,0.79c0.543,0,0.949-0.263,1.221-0.79
		c0.271-0.526,0.448-1.236,0.533-2.13c0.084-0.894,0.127-1.887,0.127-2.98c0-1.106-0.043-2.106-0.127-3
		c-0.085-0.893-0.263-1.603-0.533-2.13c-0.271-0.526-0.678-0.79-1.221-0.79c-0.551,0-0.96,0.264-1.227,0.79
		c-0.267,0.527-0.442,1.237-0.526,2.13C511.243,339.576,511.201,340.576,511.201,341.683z"/>
	<path fill="#262626" d="M520.842,334.604c0.08-0.561,0.247-1.16,0.5-1.801c0.254-0.64,0.509-1.112,0.767-1.42
		c1.228,0.134,2.153,0.817,2.78,2.05c0.627,1.234,1.002,2.851,1.127,4.851v13.38c-0.293,0.08-0.625,0.14-0.993,0.18
		c-0.369,0.04-0.731,0.061-1.087,0.061c-0.347,0-0.705-0.021-1.073-0.061c-0.369-0.04-0.709-0.1-1.021-0.18v-12.92
		c0-1.173-0.113-2.1-0.34-2.78C521.275,335.283,521.056,334.83,520.842,334.604z M530.616,331.763c0,0.733-0.089,1.67-0.267,2.811
		c-0.179,1.14-0.437,2.149-0.773,3.03c-0.24-0.134-0.472-0.227-0.693-0.28c-0.223-0.054-0.449-0.101-0.681-0.141
		c-0.355,0-0.676,0.098-0.96,0.29c-0.284,0.194-0.545,0.478-0.78,0.851s-0.453,0.833-0.653,1.38c-0.199,0.547-0.393,1.174-0.58,1.88
		l-0.466-0.939c0.044-1.094,0.138-2.188,0.279-3.28c0.143-1.094,0.362-2.087,0.66-2.98c0.298-0.893,0.7-1.609,1.207-2.149
		s1.151-0.811,1.934-0.811c0.408,0,0.739,0.033,0.993,0.101C530.089,331.59,530.35,331.67,530.616,331.763z"/>
	<path fill="#262626" d="M531.521,332.083c0.4-0.24,0.795-0.423,1.187-0.55s0.769-0.19,1.134-0.19c0.666,0,1.135,0.233,1.406,0.7
		s0.465,1.12,0.58,1.96l0.827,6.46c0.178,1.294,0.326,2.487,0.446,3.58c0.12,1.094,0.202,1.987,0.247,2.68
		c0.026,0.214,0.098,0.32,0.213,0.32l1.467-15.12c0.329-0.12,0.747-0.203,1.254-0.25c0.506-0.046,0.889-0.069,1.146-0.069
		c0.275,0,0.678,0.023,1.207,0.069c0.528,0.047,0.948,0.13,1.26,0.25l1.507,14.8c0.026,0.214,0.098,0.32,0.213,0.32
		c0.089-0.92,0.193-1.937,0.313-3.05s0.26-2.29,0.42-3.53l1.187-8.74c0.231-0.093,0.494-0.159,0.787-0.199s0.56-0.061,0.8-0.061
		c0.284,0,0.651,0.033,1.101,0.101c0.448,0.066,0.819,0.206,1.113,0.42l0.12,0.38l-3.107,19.3c-0.418,0.093-0.911,0.156-1.479,0.19
		c-0.569,0.032-1.099,0.05-1.587,0.05c-0.8,0-1.407-0.167-1.82-0.5s-0.678-1.113-0.793-2.34l-0.454-4.301
		c-0.062-0.652-0.133-1.39-0.213-2.21c-0.08-0.819-0.162-1.683-0.247-2.59c-0.084-0.906-0.157-1.819-0.22-2.74h-0.16
		c-0.071,0.907-0.146,1.808-0.227,2.7c-0.08,0.894-0.162,1.747-0.247,2.561c-0.084,0.813-0.157,1.547-0.22,2.199l-0.746,6.98
		c-0.437,0.08-0.945,0.14-1.527,0.18s-1.122,0.061-1.62,0.061c-0.782,0-1.378-0.19-1.786-0.57c-0.409-0.38-0.707-1.163-0.894-2.35
		L531.521,332.083z"/>
	<path fill="#262626" d="M552.216,346.203c0-1.6,0.249-2.913,0.747-3.94c0.498-1.026,1.148-1.786,1.953-2.279s1.665-0.74,2.58-0.74
		c0.4,0,0.904,0.014,1.514,0.04c0.608,0.026,1.158,0.113,1.646,0.26v3.96c-0.382-0.133-0.842-0.21-1.38-0.229
		c-0.538-0.021-0.984-0.03-1.34-0.03c-0.587,0-1.012,0.236-1.273,0.71c-0.263,0.474-0.394,1.083-0.394,1.83
		c0,0.533,0.111,0.977,0.333,1.33c0.223,0.354,0.521,0.53,0.894,0.53c0.533,0,1.078-0.287,1.634-0.86s1.02-1.36,1.394-2.36
		l0.586,3.96c-0.347,0.613-0.742,1.217-1.187,1.811c-0.444,0.593-0.965,1.087-1.56,1.479c-0.596,0.394-1.294,0.59-2.094,0.59
		c-0.916,0-1.674-0.307-2.273-0.92s-1.047-1.383-1.34-2.31C552.362,348.106,552.216,347.163,552.216,346.203z M564.31,348.783
		c-0.071,0.547-0.235,1.14-0.493,1.78c-0.258,0.64-0.516,1.112-0.773,1.42c-0.782-0.027-1.429-0.294-1.939-0.801
		c-0.512-0.506-0.902-1.13-1.174-1.869c-0.271-0.74-0.446-1.464-0.526-2.17v-8.561c0-0.84-0.141-1.473-0.42-1.9
		c-0.28-0.426-0.723-0.64-1.327-0.64c-0.569,0-1.191,0.137-1.866,0.41c-0.676,0.273-1.365,0.563-2.067,0.87
		c-0.293-0.507-0.522-1.163-0.687-1.97c-0.165-0.807-0.269-1.597-0.313-2.37c0.596-0.36,1.258-0.674,1.987-0.94
		c0.729-0.267,1.453-0.47,2.173-0.61c0.72-0.14,1.369-0.21,1.947-0.21c0.773,0,1.521,0.218,2.246,0.65
		c0.725,0.434,1.32,1.15,1.787,2.15s0.7,2.34,0.7,4.02v8.14c0,0.574,0.06,1.08,0.18,1.521S564.052,348.503,564.31,348.783z"/>
	<path fill="#262626" d="M565.896,334.604c0.08-0.561,0.247-1.16,0.5-1.801c0.254-0.64,0.509-1.112,0.767-1.42
		c1.228,0.134,2.153,0.817,2.78,2.05c0.627,1.234,1.002,2.851,1.127,4.851v13.38c-0.293,0.08-0.625,0.14-0.993,0.18
		c-0.369,0.04-0.731,0.061-1.087,0.061c-0.347,0-0.705-0.021-1.073-0.061c-0.369-0.04-0.709-0.1-1.021-0.18v-12.92
		c0-1.173-0.113-2.1-0.34-2.78C566.33,335.283,566.11,334.83,565.896,334.604z M575.671,331.763c0,0.733-0.089,1.67-0.267,2.811
		c-0.179,1.14-0.437,2.149-0.773,3.03c-0.24-0.134-0.472-0.227-0.693-0.28c-0.223-0.054-0.449-0.101-0.681-0.141
		c-0.355,0-0.676,0.098-0.96,0.29c-0.284,0.194-0.545,0.478-0.78,0.851s-0.453,0.833-0.653,1.38c-0.199,0.547-0.393,1.174-0.58,1.88
		l-0.466-0.939c0.044-1.094,0.138-2.188,0.279-3.28c0.143-1.094,0.362-2.087,0.66-2.98c0.298-0.893,0.7-1.609,1.207-2.149
		s1.151-0.811,1.934-0.811c0.408,0,0.739,0.033,0.993,0.101C575.144,331.59,575.404,331.67,575.671,331.763z"/>
	<path fill="#262626" d="M576.23,341.923c0-2.293,0.242-4.229,0.727-5.81s1.131-2.776,1.94-3.59c0.809-0.813,1.702-1.221,2.68-1.221
		c0.925,0,1.744,0.287,2.46,0.86s1.367,1.127,1.954,1.66l-0.667,4.439c-0.516-0.64-1.04-1.187-1.573-1.64s-1.019-0.68-1.454-0.68
		c-0.426,0-0.772,0.247-1.04,0.739c-0.267,0.494-0.46,1.188-0.58,2.08c-0.119,0.894-0.18,1.96-0.18,3.2
		c0,1.228,0.069,2.23,0.207,3.01c0.138,0.78,0.328,1.354,0.573,1.721c0.244,0.366,0.518,0.55,0.82,0.55
		c0.284,0,0.613-0.13,0.986-0.39c0.373-0.261,0.742-0.75,1.106-1.471c0.364-0.72,0.662-1.786,0.894-3.2l0.934,3.54
		c-0.08,1.08-0.352,2.12-0.813,3.12s-1.056,1.82-1.78,2.46c-0.725,0.641-1.526,0.96-2.406,0.96c-1.085,0-1.98-0.439-2.688-1.319
		c-0.706-0.88-1.233-2.097-1.58-3.65C576.403,345.74,576.23,343.95,576.23,341.923z M588.098,345.883
		c0,0.641,0.068,1.221,0.207,1.74c0.138,0.521,0.317,0.907,0.54,1.16c-0.08,0.547-0.247,1.14-0.5,1.78
		c-0.254,0.64-0.51,1.112-0.768,1.42c-1.173-0.04-2.058-0.637-2.653-1.79s-0.894-2.563-0.894-4.23v-23.46l0.188-0.28h1.626
		c0.818,0,1.398,0.28,1.74,0.841c0.343,0.56,0.514,1.533,0.514,2.92V345.883z"/>
	<path fill="#262626" d="M592.15,343.303c-0.151-2.573-0.311-5.14-0.479-7.699c-0.169-2.561-0.254-5.147-0.254-7.761v-3.46
		c0.383-0.173,0.865-0.286,1.447-0.34c0.582-0.053,1.164-0.05,1.747,0.01c0.582,0.061,1.064,0.17,1.446,0.33v3.54
		c0,2.561-0.096,5.12-0.287,7.681c-0.19,2.56-0.353,5.126-0.486,7.699c-0.275,0.12-0.551,0.197-0.826,0.23
		c-0.276,0.033-0.517,0.05-0.721,0.05c-0.187,0-0.431-0.017-0.733-0.05C592.702,343.5,592.417,343.423,592.15,343.303z
		 M593.737,346.104c0.355,0,0.709,0.057,1.061,0.17c0.351,0.113,0.65,0.276,0.899,0.489c0.098,0.254,0.174,0.62,0.227,1.101
		c0.054,0.479,0.08,0.906,0.08,1.28c0,0.359-0.026,0.776-0.08,1.25c-0.053,0.473-0.129,0.829-0.227,1.069
		c-0.249,0.213-0.549,0.377-0.899,0.49c-0.352,0.113-0.705,0.17-1.061,0.17c-0.364,0-0.722-0.057-1.073-0.17
		s-0.655-0.277-0.913-0.49c-0.089-0.24-0.158-0.597-0.207-1.069c-0.049-0.474-0.073-0.891-0.073-1.25
		c0-0.374,0.024-0.801,0.073-1.28c0.049-0.48,0.118-0.847,0.207-1.101c0.258-0.213,0.562-0.376,0.913-0.489
		S593.373,346.104,593.737,346.104z"/>
</g>
<ellipse opacity="0.9" fill="#E31B6D" enable-background="new    " cx="172.847" cy="296.747" rx="40.847" ry="40.313"/>
<polygon opacity="0.9" fill="#E31B6D" enable-background="new    " points="309,109.804 309.51,79.51 335.49,95.099 "/>
<g>
	
		<image overflow="visible" opacity="0.75" enable-background="new    " width="257" height="186" xlink:href="C7F8CADA.png"  transform="matrix(1 0 0 1 153 128)">
	</image>
	<g>
		<path fill="#FFFFFF" d="M395,286.334c0,6.627-5.373,12-12,12H180c-6.627,0-12-5.373-12-12V155c0-6.627,5.373-12,12-12h203
			c6.627,0,12,5.373,12,12V286.334z"/>
	</g>
</g>
<rect x="194" y="190" fill="none" width="171.5" height="79"/>
<g enable-background="new    ">
	<path fill="#E31B6D" d="M235.671,207.859c0.227,2.573,0.466,5.14,0.72,7.7c0.253,2.56,0.38,5.146,0.38,7.76v3.46
		c-0.573,0.173-1.297,0.287-2.17,0.34c-0.874,0.054-1.747,0.051-2.62-0.01c-0.873-0.06-1.597-0.17-2.17-0.33v-3.54
		c0-2.56,0.143-5.12,0.43-7.68c0.287-2.561,0.53-5.127,0.73-7.7c0.413-0.12,0.827-0.196,1.24-0.229
		c0.413-0.033,0.773-0.051,1.08-0.051c0.28,0,0.647,0.018,1.1,0.051S235.271,207.739,235.671,207.859z M233.291,205.06
		c-0.533,0-1.063-0.057-1.59-0.17c-0.527-0.113-0.977-0.276-1.35-0.49c-0.147-0.253-0.26-0.62-0.34-1.1
		c-0.08-0.48-0.12-0.907-0.12-1.28c0-0.36,0.04-0.776,0.12-1.25s0.193-0.83,0.34-1.07c0.373-0.213,0.823-0.376,1.35-0.49
		c0.526-0.112,1.057-0.17,1.59-0.17c0.547,0,1.083,0.058,1.61,0.17c0.526,0.114,0.983,0.277,1.37,0.49
		c0.133,0.24,0.237,0.597,0.31,1.07s0.11,0.89,0.11,1.25c0,0.373-0.037,0.8-0.11,1.28c-0.073,0.479-0.177,0.847-0.31,1.1
		c-0.387,0.214-0.843,0.377-1.37,0.49C234.375,205.003,233.838,205.06,233.291,205.06z"/>
	<path fill="#E31B6D" d="M248.751,219.439c-0.533,0.093-1.097,0.156-1.69,0.19c-0.593,0.032-1.104,0.05-1.53,0.05
		c-0.387,0-0.887-0.018-1.5-0.05c-0.614-0.034-1.18-0.098-1.7-0.19v-27.32c0.52-0.093,1.086-0.156,1.7-0.189
		c0.613-0.033,1.113-0.05,1.5-0.05c0.426,0,0.937,0.017,1.53,0.05s1.157,0.097,1.69,0.189v7.641c0,0.56-0.007,1.057-0.02,1.489
		c-0.013,0.434-0.02,0.924-0.02,1.471v5.279c0,0.534,0.007,1.021,0.02,1.46c0.013,0.44,0.02,0.94,0.02,1.5V219.439z
		 M250.711,208.039c-0.2,0-0.417-0.003-0.65-0.01c-0.233-0.007-0.47-0.013-0.71-0.02c-0.24-0.007-0.454-0.011-0.64-0.011
		c-0.627,0-1.27,0.007-1.93,0.021c-0.66,0.014-1.304,0.02-1.93,0.02v-5.359c0.626,0,1.27,0.007,1.93,0.02
		c0.66,0.014,1.303,0.021,1.93,0.021c0.187,0,0.4-0.003,0.64-0.011c0.24-0.006,0.477-0.013,0.71-0.02
		c0.233-0.007,0.45-0.01,0.65-0.01h4.62c0.187,0,0.4,0.003,0.64,0.01c0.24,0.007,0.477,0.014,0.71,0.02
		c0.233,0.008,0.45,0.011,0.65,0.011c0.626,0,1.267-0.007,1.92-0.021c0.653-0.013,1.293-0.02,1.92-0.02v5.359
		c-0.627,0-1.267-0.006-1.92-0.02s-1.293-0.021-1.92-0.021c-0.2,0-0.417,0.004-0.65,0.011c-0.233,0.007-0.47,0.013-0.71,0.02
		c-0.24,0.007-0.454,0.01-0.64,0.01H250.711z M257.291,210.959c0-0.56,0.006-1.06,0.02-1.5c0.013-0.439,0.02-0.926,0.02-1.46v-5.279
		c0-0.547-0.007-1.037-0.02-1.471c-0.014-0.433-0.02-0.93-0.02-1.489v-7.641c0.533-0.093,1.093-0.156,1.68-0.189
		c0.586-0.033,1.093-0.05,1.52-0.05c0.386,0,0.89,0.017,1.51,0.05s1.183,0.097,1.69,0.189v27.32c-0.547,0.093-1.093,0.156-1.64,0.19
		c-0.547,0.032-1.04,0.05-1.48,0.05c-0.453,0-0.977-0.018-1.57-0.05c-0.593-0.034-1.164-0.098-1.71-0.19V210.959z"/>
	<path fill="#E31B6D" d="M271.951,211.479v-4.3h7.54v-0.46c0-0.613-0.087-1.177-0.26-1.69c-0.173-0.513-0.454-0.927-0.84-1.24
		c-0.387-0.313-0.894-0.47-1.52-0.47c-0.974,0-1.657,0.4-2.05,1.2s-0.59,2.033-0.59,3.7v1.88c0,0.92,0.08,1.77,0.24,2.55
		c0.16,0.78,0.5,1.41,1.02,1.89c0.52,0.48,1.313,0.721,2.38,0.721c0.906,0,1.796-0.117,2.67-0.351c0.873-0.232,1.71-0.517,2.51-0.85
		c0.467,0.467,0.84,1.047,1.12,1.74c0.28,0.693,0.467,1.347,0.56,1.96c-1.013,0.733-2.224,1.297-3.63,1.689
		c-1.407,0.394-2.824,0.59-4.25,0.59c-1.747,0-3.197-0.293-4.35-0.88c-1.153-0.586-2.063-1.373-2.73-2.359
		c-0.667-0.987-1.137-2.104-1.41-3.351c-0.273-1.246-0.41-2.529-0.41-3.85c0-2.014,0.303-3.83,0.91-5.45s1.57-2.903,2.89-3.85
		c1.32-0.947,3.04-1.42,5.16-1.42c1.747,0,3.243,0.373,4.49,1.119c1.247,0.747,2.2,1.761,2.86,3.04c0.66,1.28,0.99,2.721,0.99,4.32
		c0,0.894-0.04,1.637-0.12,2.23c-0.08,0.593-0.22,1.223-0.42,1.89H271.951z"/>
	<path fill="#E31B6D" d="M297.89,214.88c0.333,0.96,0.5,1.946,0.5,2.96c0,0.227-0.01,0.467-0.03,0.72s-0.063,0.479-0.13,0.68
		c-0.6,0.107-1.277,0.2-2.03,0.28s-1.51,0.12-2.27,0.12c-1.813,0-3.097-0.45-3.85-1.351c-0.753-0.899-1.13-2.303-1.13-4.21v-23.8
		l0.28-0.28h2.44c1.227,0,2.097,0.28,2.61,0.841c0.513,0.56,0.77,1.533,0.77,2.92v19.22c0,0.613,0.133,1.083,0.4,1.41
		s0.713,0.49,1.34,0.49H297.89z"/>
	<path fill="#E31B6D" d="M310.01,214.88c0.333,0.96,0.5,1.946,0.5,2.96c0,0.227-0.01,0.467-0.03,0.72s-0.063,0.479-0.13,0.68
		c-0.6,0.107-1.277,0.2-2.03,0.28s-1.51,0.12-2.27,0.12c-1.813,0-3.097-0.45-3.85-1.351c-0.753-0.899-1.13-2.303-1.13-4.21v-23.8
		l0.28-0.28h2.44c1.227,0,2.097,0.28,2.61,0.841c0.513,0.56,0.77,1.533,0.77,2.92v19.22c0,0.613,0.133,1.083,0.4,1.41
		s0.713,0.49,1.34,0.49H310.01z"/>
	<path fill="#E31B6D" d="M330.53,209.459c0,2.134-0.354,3.994-1.06,5.58c-0.707,1.587-1.747,2.817-3.12,3.69
		c-1.374,0.873-3.06,1.31-5.06,1.31c-2.027,0-3.727-0.439-5.1-1.319s-2.407-2.113-3.1-3.7c-0.694-1.587-1.04-3.44-1.04-5.561
		c0-2.146,0.35-4.01,1.05-5.59s1.736-2.807,3.11-3.68c1.373-0.873,3.067-1.31,5.08-1.31c2.027,0,3.723,0.439,5.09,1.319
		s2.4,2.11,3.1,3.69C330.18,205.47,330.53,207.326,330.53,209.459z M318.47,209.459c0,1.094,0.063,2.087,0.19,2.98
		c0.126,0.894,0.39,1.604,0.79,2.13c0.4,0.527,1.013,0.79,1.84,0.79c0.813,0,1.423-0.263,1.83-0.79
		c0.407-0.526,0.673-1.236,0.8-2.13c0.127-0.894,0.19-1.887,0.19-2.98c0-1.106-0.063-2.106-0.19-3
		c-0.126-0.893-0.393-1.603-0.8-2.13c-0.407-0.526-1.017-0.79-1.83-0.79c-0.827,0-1.44,0.264-1.84,0.79
		c-0.4,0.527-0.664,1.237-0.79,2.13C318.533,207.353,318.47,208.353,318.47,209.459z"/>
</g>
<g enable-background="new    ">
	<path fill="#E31B6D" d="M223.241,247.859c0.6-0.24,1.193-0.423,1.78-0.55c0.586-0.127,1.153-0.19,1.7-0.19
		c1,0,1.703,0.233,2.11,0.7s0.697,1.12,0.87,1.96l1.24,6.46c0.267,1.294,0.49,2.487,0.67,3.58c0.18,1.094,0.303,1.987,0.37,2.68
		c0.04,0.214,0.146,0.32,0.32,0.32l2.2-15.12c0.493-0.12,1.12-0.203,1.88-0.25c0.76-0.046,1.333-0.069,1.72-0.069
		c0.413,0,1.017,0.023,1.81,0.069c0.793,0.047,1.423,0.13,1.89,0.25l2.26,14.8c0.04,0.214,0.146,0.32,0.32,0.32
		c0.133-0.92,0.29-1.937,0.47-3.05s0.39-2.29,0.63-3.53l1.78-8.74c0.346-0.093,0.74-0.159,1.18-0.199s0.84-0.061,1.2-0.061
		c0.426,0,0.977,0.033,1.65,0.101c0.673,0.066,1.23,0.206,1.67,0.42l0.18,0.38l-4.66,19.3c-0.627,0.093-1.367,0.156-2.22,0.19
		c-0.854,0.032-1.647,0.05-2.38,0.05c-1.2,0-2.11-0.167-2.73-0.5c-0.62-0.333-1.017-1.113-1.19-2.34l-0.68-4.301
		c-0.094-0.652-0.2-1.39-0.32-2.21c-0.12-0.819-0.243-1.683-0.37-2.59c-0.126-0.906-0.237-1.819-0.33-2.74h-0.24
		c-0.107,0.907-0.22,1.808-0.34,2.7c-0.12,0.894-0.244,1.747-0.37,2.561c-0.127,0.813-0.237,1.547-0.33,2.199l-1.12,6.98
		c-0.653,0.08-1.417,0.14-2.29,0.18c-0.873,0.04-1.683,0.061-2.43,0.061c-1.173,0-2.067-0.19-2.68-0.57s-1.06-1.163-1.34-2.35
		L223.241,247.859z"/>
	<path fill="#E31B6D" d="M272.661,257.459c0,2.134-0.354,3.994-1.06,5.58c-0.707,1.587-1.747,2.817-3.12,3.69
		c-1.374,0.873-3.06,1.31-5.06,1.31c-2.027,0-3.727-0.439-5.1-1.319s-2.407-2.113-3.1-3.7c-0.694-1.587-1.04-3.44-1.04-5.561
		c0-2.146,0.35-4.01,1.05-5.59s1.736-2.807,3.11-3.68c1.373-0.873,3.067-1.31,5.08-1.31c2.027,0,3.723,0.439,5.09,1.319
		s2.4,2.11,3.1,3.69C272.311,253.47,272.661,255.326,272.661,257.459z M260.601,257.459c0,1.094,0.063,2.087,0.19,2.98
		c0.126,0.894,0.39,1.604,0.79,2.13c0.4,0.527,1.013,0.79,1.84,0.79c0.813,0,1.423-0.263,1.83-0.79
		c0.407-0.526,0.673-1.236,0.8-2.13c0.127-0.894,0.19-1.887,0.19-2.98c0-1.106-0.063-2.106-0.19-3
		c-0.126-0.893-0.393-1.603-0.8-2.13c-0.407-0.526-1.017-0.79-1.83-0.79c-0.827,0-1.44,0.264-1.84,0.79
		c-0.4,0.527-0.664,1.237-0.79,2.13C260.664,255.353,260.601,256.353,260.601,257.459z"/>
	<path fill="#E31B6D" d="M275.061,250.38c0.12-0.561,0.37-1.16,0.75-1.801c0.38-0.64,0.763-1.112,1.15-1.42
		c1.84,0.134,3.23,0.817,4.17,2.05c0.94,1.234,1.503,2.851,1.69,4.851v13.38c-0.44,0.08-0.937,0.14-1.49,0.18
		c-0.554,0.04-1.097,0.061-1.63,0.061c-0.52,0-1.057-0.021-1.61-0.061s-1.063-0.1-1.53-0.18v-12.92c0-1.173-0.17-2.1-0.51-2.78
		C275.711,251.06,275.381,250.606,275.061,250.38z M289.721,247.539c0,0.733-0.133,1.67-0.4,2.811
		c-0.267,1.14-0.653,2.149-1.16,3.03c-0.36-0.134-0.707-0.227-1.04-0.28c-0.333-0.054-0.673-0.101-1.02-0.141
		c-0.534,0-1.014,0.098-1.44,0.29c-0.427,0.194-0.817,0.478-1.17,0.851c-0.354,0.373-0.68,0.833-0.98,1.38
		c-0.3,0.547-0.59,1.174-0.87,1.88l-0.7-0.939c0.066-1.094,0.207-2.188,0.42-3.28c0.213-1.094,0.543-2.087,0.99-2.98
		c0.446-0.893,1.05-1.609,1.81-2.149c0.76-0.54,1.727-0.811,2.9-0.811c0.613,0,1.11,0.033,1.49,0.101
		C288.931,247.366,289.321,247.446,289.721,247.539z"/>
	<path fill="#E31B6D" d="M301.02,262.88c0.333,0.96,0.5,1.946,0.5,2.96c0,0.227-0.01,0.467-0.03,0.72s-0.063,0.479-0.13,0.68
		c-0.6,0.107-1.277,0.2-2.03,0.28s-1.51,0.12-2.27,0.12c-1.813,0-3.097-0.45-3.85-1.351c-0.753-0.899-1.13-2.303-1.13-4.21v-23.8
		l0.28-0.28h2.44c1.227,0,2.097,0.28,2.61,0.841c0.513,0.56,0.77,1.533,0.77,2.92v19.22c0,0.613,0.133,1.083,0.4,1.41
		s0.713,0.49,1.34,0.49H301.02z"/>
	<path fill="#E31B6D" d="M303.3,257.699c0-2.293,0.363-4.229,1.09-5.81c0.727-1.58,1.696-2.776,2.91-3.59s2.553-1.221,4.02-1.221
		c1.387,0,2.617,0.287,3.69,0.86c1.073,0.573,2.05,1.127,2.93,1.66l-1,4.439c-0.773-0.64-1.56-1.187-2.36-1.64
		c-0.8-0.453-1.527-0.68-2.18-0.68c-0.64,0-1.16,0.247-1.56,0.739c-0.4,0.494-0.69,1.188-0.87,2.08c-0.18,0.894-0.27,1.96-0.27,3.2
		c0,1.228,0.103,2.23,0.31,3.01c0.207,0.78,0.493,1.354,0.86,1.721c0.367,0.366,0.776,0.55,1.23,0.55c0.426,0,0.92-0.13,1.48-0.39
		c0.56-0.261,1.113-0.75,1.66-1.471c0.546-0.72,0.993-1.786,1.34-3.2l1.4,3.54c-0.12,1.08-0.527,2.12-1.22,3.12
		c-0.694,1-1.583,1.82-2.67,2.46c-1.087,0.641-2.29,0.96-3.61,0.96c-1.627,0-2.97-0.439-4.03-1.319s-1.85-2.097-2.37-3.65
		C303.56,261.517,303.3,259.727,303.3,257.699z M321.1,261.659c0,0.641,0.103,1.221,0.31,1.74c0.207,0.521,0.477,0.907,0.81,1.16
		c-0.12,0.547-0.37,1.14-0.75,1.78c-0.38,0.64-0.764,1.112-1.15,1.42c-1.76-0.04-3.087-0.637-3.98-1.79s-1.34-2.563-1.34-4.23
		v-23.46l0.28-0.28h2.44c1.227,0,2.096,0.28,2.61,0.841c0.513,0.56,0.77,1.533,0.77,2.92V261.659z"/>
	<path fill="#E31B6D" d="M327.18,259.079c-0.227-2.573-0.467-5.14-0.72-7.699c-0.253-2.561-0.38-5.147-0.38-7.761v-3.46
		c0.573-0.173,1.296-0.286,2.17-0.34c0.873-0.053,1.747-0.05,2.62,0.01c0.873,0.061,1.597,0.17,2.17,0.33v3.54
		c0,2.561-0.144,5.12-0.43,7.681c-0.287,2.56-0.53,5.126-0.73,7.699c-0.413,0.12-0.827,0.197-1.24,0.23
		c-0.414,0.033-0.773,0.05-1.08,0.05c-0.28,0-0.647-0.017-1.1-0.05S327.58,259.199,327.18,259.079z M329.56,261.88
		c0.533,0,1.063,0.057,1.59,0.17s0.977,0.276,1.35,0.489c0.146,0.254,0.26,0.62,0.34,1.101c0.08,0.479,0.12,0.906,0.12,1.28
		c0,0.359-0.04,0.776-0.12,1.25c-0.08,0.473-0.193,0.829-0.34,1.069c-0.374,0.213-0.823,0.377-1.35,0.49s-1.057,0.17-1.59,0.17
		c-0.547,0-1.083-0.057-1.61-0.17c-0.527-0.113-0.983-0.277-1.37-0.49c-0.133-0.24-0.237-0.597-0.31-1.069
		c-0.073-0.474-0.11-0.891-0.11-1.25c0-0.374,0.037-0.801,0.11-1.28c0.073-0.48,0.177-0.847,0.31-1.101
		c0.387-0.213,0.843-0.376,1.37-0.489C328.476,261.937,329.013,261.88,329.56,261.88z"/>
</g>
<path fill="#5A6AC1" d="M309,298.334c0,0,65.221,0.08,75.735-0.127C394.875,297.25,395,286.334,395,286.334v-70.001
	c0,0-33.333,12.002-43,41.001S309,298.334,309,298.334z"/>
<path fill="#5A6AC1" d="M254,162.213c0,0-65.221-0.08-75.735,0.127C168.125,163.297,168,174.213,168,174.213v70.001
	c0,0,33.333-12.002,43-41.002C220.667,174.213,254,162.213,254,162.213z"/>
<path fill="#262626" d="M395,158.5c0,6.627,0,12,0,12H168c0,0,0-5.373,0-12V155c0-6.627,5.373-12,12-12h203c6.627,0,12,5.373,12,12
	V158.5z"/>
<ellipse fill="#E31B6D" cx="380" cy="157.36" rx="7.667" ry="7.64"/>
<ellipse fill="#5A6AC1" cx="361.833" cy="157.36" rx="7.667" ry="7.64"/>
<ellipse fill="#E5E5E5" cx="342.833" cy="157.36" rx="7.667" ry="7.64"/>
<polygon opacity="0.9" fill="none" stroke="#E31B6D" stroke-width="7.3067" stroke-miterlimit="10" enable-background="new    " points="
	711.936,349.13 658.994,349.835 684.854,303.636 "/>
<g>
	<ellipse fill="#FFFFFF" cx="673.083" cy="28.958" rx="6.412" ry="5.303"/>
	<ellipse fill="#FFFFFF" cx="701.446" cy="28.958" rx="6.411" ry="5.303"/>
	<ellipse fill="#FFFFFF" cx="729.801" cy="28.958" rx="6.412" ry="5.303"/>
	<ellipse fill="#FFFFFF" cx="761.737" cy="28.958" rx="6.411" ry="5.303"/>
	<ellipse fill="#FFFFFF" cx="673.084" cy="51.349" rx="6.412" ry="5.303"/>
	<ellipse fill="#FFFFFF" cx="701.448" cy="51.349" rx="6.412" ry="5.303"/>
	<ellipse fill="#FFFFFF" cx="729.803" cy="51.349" rx="6.412" ry="5.303"/>
	<ellipse fill="#FFFFFF" cx="761.74" cy="51.349" rx="6.412" ry="5.303"/>
	<ellipse fill="#FFFFFF" cx="673.083" cy="75.506" rx="6.412" ry="5.303"/>
	<ellipse fill="#FFFFFF" cx="701.446" cy="75.506" rx="6.411" ry="5.303"/>
	<ellipse fill="#FFFFFF" cx="729.801" cy="75.506" rx="6.412" ry="5.303"/>
	<ellipse fill="#FFFFFF" cx="761.737" cy="75.506" rx="6.411" ry="5.303"/>
	<ellipse fill="#FFFFFF" cx="673.083" cy="99.959" rx="6.412" ry="5.304"/>
	<ellipse fill="#FFFFFF" cx="701.446" cy="99.959" rx="6.411" ry="5.304"/>
	<ellipse fill="#FFFFFF" cx="729.801" cy="99.959" rx="6.412" ry="5.304"/>
	<ellipse fill="#FFFFFF" cx="761.737" cy="99.959" rx="6.411" ry="5.304"/>
</g>
<polygon opacity="0.9" fill="#E31B6D" stroke="#E31B6D" stroke-miterlimit="10" enable-background="new    " points="
	609.463,66.479 582.504,52.652 607.958,36.218 "/>
<ellipse fill="#5A6AC1" cx="418.334" cy="56.651" rx="13.771" ry="13.32"/>
<ellipse fill="#5A6AC1" cx="541.37" cy="91.943" rx="13.771" ry="13.32"/>
<ellipse fill="none" stroke="#5A6AC1" stroke-miterlimit="10" cx="424.834" cy="60.401" rx="13.771" ry="13.32"/>
<polygon opacity="0.9" fill="none" stroke="#E31B6D" stroke-width="2" stroke-miterlimit="10" enable-background="new    " points="
	613.293,73.592 586.334,59.766 611.788,43.332 "/>
</svg>
